<?xml version="1.0" encoding="UTF-8"?>
<svg version="1.1" viewBox="0 0 2048 2048" width="1280" height="1280" xmlns="http://www.w3.org/2000/svg">
<path transform="translate(1688,435)" d="m0 0h43l24 4 21 7 25 13 17 12 11 9 15 15 10 13 13 21 9 21 6 18 4 19 1 9v34l-3 26-3 9-5 12 1 6 11 23 10 21 6 20 4 20 1 8 1 25-4 16-3 11v17l5 16 6 19 4 23 2 24v13l-2 27-4 20-9 27-8 18-9 16-9 13-9 12-12 14-13 13-18 13-15 9-17 9-24 9-28 7-20 3-11 1h-38l-23-3-1 5 3 31 1 35 4 13 14 36 6 19 10 40 7 39 6 44 2 21v21l-2 19-5 22-7 20-10 19-10 16-9 11-8 9-8 7-12 9-17 10-20 8-15 5-17 4-7 1h-42l-18-3-21-7-21-10-12-8-9-7-10-9-11-11-8-7-8-5-8-2h-8l-9 3-5 2-11 2-27 2h-20l-4-1-19-1-14-3-10-3-6-3-9-1-2-1h-12l-8 3-4 3-8 2h-7l-1-1-7 1-1 1-22-1-7 1-9-1h-5l-10-4-8-4-5-3h-10l-7-1-9 1-8 4-5 3-10 2-3 1-2-1h-6l-1 2-7 1-3-2-5 1-2 2h-8l-5-2-6 1-2-4-4 3h-5l-2-5-14 1-9 4h-6l-3 2-11 1-11 2-5-1-4 1h-10l-5-1-1 1h-10l-8-4-5-3-3 3-4 1-3-4-5-1h-8l-6 5-12 3h-8l-6-1-1 1-18 1-10-1-16-2-17-3-11-5-10-3-7-1h-15l-3 2h-19l-4 2-6-1-2-2h-10l-28-5-16-5-18-6-7-1-10 4-8 5-5 1-15 1-4 1-14 1h-17l-21-2-14-3-18-6-16-8-12-7-13-10-12-11-12-13-13-18-9-16-6-15-6-19-3-15-7-70-5-30-5-27-2-18v-16l4-21 4-16 1-7v-23l-2-3-6-2-42-4-27-5-25-8-21-9-16-8-15-9-18-13-11-9-12-11-17-17-11-14-11-15-9-15-12-23-9-21-8-27-5-22-3-19-1-11v-31l4-28 6-27 9-27 9-20 11-20 9-13 10-13 12-14 11-12 12-11 11-9 11-8 13-8 19-10 28-11 17-5 24-4 11-1h47l29-8 13-7 14-13 9-11 11-12 11-9 12-11 19-14 18-11 14-8 27-11 23-7 14-3 15-2 20-1h15l19 1 25 5 17 6 16 8 16 10 10 8 10 9 8 7 14 9 17 8 17 9 16 12 6 6 4-1 6-5 6-8 11-11 8-7 9-8 16-11 19-10 21-7 27-5h29l25 4 17 5 16 6 17 9 18 13 12 11 12 12 7 9 10 14 7 8 3 2 6-1 21-10 9-1 7-3 11-3h13l7-2h13l7 2h9l16-5 18-7 17-5 21-3 11-1h18l28 3 18 4 27 9 10 6 10 7 4-1 7-9 9-11 11-14 10-13 10-11 7-8 14-15 4-4h2l2-4 15-14 12-10 13-10 14-10 21-12 19-9 25-9 21-5z" fill="#FDFCFC"/>
<path transform="translate(1707,577)" d="m0 0h10l12 3 7 4 9 8 7 10 7 14 2 9v14l-3 14-5 13-8 14-5 9-11 14-5 7h-2l-2 4-4 5-5 5-7 8-3 3h-2l-2 5-9 10-3 5 4 2 11-4 25 1 23 4 10 5 10 8 8 11 6 12 5 12v5l-10 8-11 5-12 2-24 2-10 3-1 3h2l3 5 7 8 8 7 7 6v2l4 2 11 12 12 16 9 14 8 17 3 12 1 7v17l-3 14-8 16-8 10-8 8-14 9-8 4-15 5-7 1h-10l-14-2-11-4-18-11-11-9-12-13-10-16-7-12-3-8-3 4-10 14-11 12-8 7-14 9-7 4-10 3-7-1-7-4-10-4-13-7-9-11-10-7-3 1-7 9-10 10-11 9-12 6-8 2-17 1-13-5-15-10-11-7-11-12-3-3-5 1-7 8-9 10-11 9-8 7-15 11-13 8-17 9-4 2-5-1-11-6-20-10-16-16-10-16-2-9v-7l4-15 8-21 3-7v-6l-5-1-4 2-4 7-3 3-1 2h-2l-2 4-7 11-14 15-4 5-6 4-12 2-16-2h-6l-19 10-10 7-11 7-13 6-6 2-11 1-3 1h-21l-11-3-12-7-8-6-11-7-6-7-14-14-5-6-3 1-2 4-8 7-9 9-15 11-19 8-3 1h-10l-12-6-13-4v-2h-5l-7 8-8 9-7 9-14 16-8 7-8 8-16 12-15 9-13 6-18 5-17-1-13-6-6-4-7-7-10-7-10-13-4-8-3-17v-56l-9 7-12 13-13 13-6 5h-2v2l-6 4-9 8-10 6-9 5-13 2-8-5-10-5-14-9-6-7-4-8v-11l4-9 9-11 13-13 11-9 5-6 8-7 21-21 7-8 14-17 9-13 7-11 9-14 7-15-1-6-9-11v-2l-3-1-5-5-8-9-8-10-4-7-1-6v-20l5-22 5-9 4-6v-5l-5-1-10 3-13 8-16 8-10 7-9 8-9 11-7 8-4 7v2l9 2 11 1 6 4 9 10 9 14 6 13v7l-6 9-5 4-10 3h-27l-27-2-5 4-11 28-12 31-7 15-6 15-14 28-6 10h-2l-1 4-10 14-8 10-6 7-8 7-12 10-21 12-17 6-24 3-8-1-20-5-8-3-15-6-15-9-11-7-16-13-8-7-8-8-10-13-8-14-8-19-4-15-3-18-1-11v-15l3-17 5-17 8-18 14-19 7-7 14-11 16-8 12-3 9-1h33l11 2 9 5 12 11 7 8 13 22 5 8 4 14 1 6v31l-5 23-5 12-8 16-3 7h-2v3l-5 5-3-1-1-1-1-2-13-4-13-8-6-3-3-5-7-8-3-5-2-7v-25l2-11 7-21 1-5-6 3-3 3-8 4-13 13-7 12-3 11-1 7v13l2 13 7 17 8 13 8 8 12 7 8 2h19l12-4h2l2-6 3-4 4-2 1-3 5-4h2l7-7 10-16 1-2h2v-4h2l2-5 8-16 8-15 9-20 4-10 4-11 4-13-1-1-12-1-12-4-5-2v-2l-5-1-5-5-8-4-7-6-2-4v-8l-1-7 5-5 8-13 8-3 50-1 12 1 7-8 9-20 7-11 16-24 9-11 15-14 17-12 16-8 16-4 18-1h17l12 2 6 4 6 7 9 16 4 12v10l-6 2-1 3 8-4 7-1 5-2 11-1h12l14 4 11 6 12 11 10 14 8 14 5 14 3 12 2 11 6 11 7 7 7 8 10 13 7 10 6 12 3 11v20l-4 15-6 15-5 12-3 4-3 9-3 5-4 8-2 2-2 8v7l-2 11 4-5 7-11 7-10 3-5h2l1-4 4-8h2l2-7 1-3h2l2-5 14-27 10-19 10-21 7-16 11-24 11-23 11-21 7-11 10-14 7-7 6-3 13-1 3 5 2 3 12 10 12 19 5 10v9l-6 12-10 19-16 31-7 16-10 30h4v3h2l1 3 5-8 4-6 6-10 2-4h2l1-4 10-18 11-22 12-22 8-12 9-10 12-11 11-7 17-8 10-3h18l21 7 11 7 12 11 7 8 9 14 5 11 5 22 1 2 4-1 2-5 19-38 8-15 6-11 13-16 6-3 10-1 10 3 7 8 7 14 5 8 7-1 7-9h2l2-4 15-14 12-9 7-5 12-5 13-3h12l13 2 14 8 9 11 8 13 5 12v18l-2 15 3 5 5-1 5-3 5-5 4-6 13-8 13-6 14-3 13-1h17l12 1 7 2h5l4-5 10-18 8-16 8-14 10-17 12-18 9-13 13-18 10-11 14-16h2l2-4 12-11 14-11 13-9 16-8 16-5z" fill="#36AB92"/>
<path transform="translate(1239,1122)" d="m0 0 9 1 6 3 8 10 8 13 2 2 8-1 8-5 11-9 15-7 14-4 8-1h16l11 3 14 7 9 8 9 13 2 9v2h2l3-10 7-13 8-8 16-8 6-2h14l10 3 18 8 13 10 7 6 9 11 9 14 8 19 2 9v15l-4 16-7 11-3 12 1 5 8 13 10 13 11 19 9 23 7 22 6 27 7 38 3 25v18l-3 10-7 9-10 5-10-2-10-6-16-12-7-8-4-11-6-35-7-36-7-30-4-15-5-10-5-4-7-3v66l-2 21-4 10-5 9-1 1-7 1h-9l-14-7-13-10-7-7-7-11-2-6-2-23-1-57-2-32-4-10-6 1-9 2-11 2-8 1-10 2-2 5-2 20-1 22v31l2 7 5 5 13 9 7 7 6 5 5 11 1 7-2 10-5 6-11 9-10 4-10 1h-11l-15-4-16-10-10-8-7-8-7-12-6-18-3-16-2-26-1-8-1-36-1-7-2 4-1 6-3 7-8 34-7 39-8 29-4 10-9 12-6 5-6 3-8-1-12-6-8-7-8-6-7-7-9-13-5-10-8-24-10-43-3-13-2-10-3-9-4-11-1-8h-2l-2 4-3 3-10 5-5 4-9 4-16 4h-5l-1 3h-2l1 33 2 23 3 5 14 14 8 7 8 9 4 8 2 8-1 9-5 9-9 8-4 3-12 4h-17l-13-6-16-10-20-18-4-5-10-18-1-29-1-15v-122l1-24 4-18 6-10 7-6 6-3 29-5 19-1 15 1 16 4 9 8 6 8 4 1 7-10h2v-2l7-4 11 1 10 5 10 10 8 13 7 14 3 12 5 29 4 16h2l1 4h2l1-8 4-21 4-24 5-19 8-23 7-13 8-8 3-2z" fill="#37AC93"/>
<path transform="translate(659,1124)" d="m0 0h11l12 3 10 8 9 10 4 10 3 11 2 6 7-1 2-1 9-1h30l8 3 11 8 8 9 10 15 8 16 5 12 6 12v-10l4-61 3-19 7-8 10-5 19-3h34l13 4 12 7 12 11 10 13 10 18 8 18 2 13v13l-4 15-12 23-13 13 1 7 8 14 14 20 10 13 12 18 12 19 4 2 4 24-1 8-4 7-8 6-6 1-11-2-11-8-13-12-7-7-18-22-8-11-11-13-2-1-2 34-2 18-5 15-4 7-6 3-7 1-15-4-11-8-12-12-5-8-5-13-3-21v-68l-4 27-5 22-9 27-8 14-10 13-8 8-14 9-3 1h-10l-10-3-13-7-15-13-8-9-9-13-6-12-7-24-3-23-2-34-2-5-11 4-29 6-7 1-1 1-1 8v33l1 23v34l-2 14-3 6-7 6-9 2-8-1-16-8-13-11-5-5-6-12-3-13-3-26v-10l-1-11-1-16-2-29-3-11-6-10-3-4 6-3 3-4 1-4 3-44 2-27 2-9 7-6 13-5 38-8 35-6z" fill="#36AB92"/>
<path transform="translate(649,641)" d="m0 0h17l12 2 6 4 6 7 9 16 4 12v9l-9 2-3 7-2 1h-7v2l-10 3-13 8-16 8-10 7-9 8-9 11-7 8-4 7v2l9 2 11 1 6 4 9 10 9 14 6 13v7l-6 9-5 4-10 3h-27l-27-2-5 4-11 28-12 31-7 15-6 15-14 28-6 10h-2l-1 4-10 14-8 10-6 7-8 7-12 10-21 12-17 6-24 3-8-1-20-5-8-3-15-6-15-9-11-7-16-13-8-7-8-8-10-13-8-14-8-19-4-15-3-18-1-11v-15l3-17 5-17 8-18 14-19 7-7 14-11 16-8 12-3 9-1h33l11 2 9 5 12 11 7 8 13 22 5 8 4 14 1 6v31l-5 23-5 12-8 16-3 7h-2v3l-5 5-3-1-1-1-1-2-13-4-13-8-6-3-3-5-7-8-3-5-2-7v-25l2-11 7-21 1-5-6 3-3 3-8 4-13 13-7 12-3 11-1 7v13l2 13 7 17 8 13 8 8 12 7 8 2h19l12-4h2l2-6 3-4 4-2 1-3 5-4h2l7-7 10-16 1-2h2v-4h2l2-5 8-16 8-15 9-20 4-10 4-11 4-13-1-1-12-1-12-4-5-2v-2l-5-1-5-5-8-4-7-6-2-4v-8l-1-7 5-5 8-13 8-3 50-1 12 1 7-8 9-20 7-11 16-24 9-11 15-14 17-12 16-8 16-4z" fill="#36AB92"/>
<path transform="translate(1239,1122)" d="m0 0 9 1 5 5 9 11 4 7v2h-2l-2 12-6 27-5 21-4 13-1 9-3 14-4 24-8 36-3 22-5 18-1 6h-2l-1 6-6 20-4 9-4 12-2 3-1 6h-2l-1 3h-3l-1 3-4-2-7-3-5-5-4-3-5-3-5-5-8-11-9-19-5-15v-2h-2l-12-52-2-10-3-9-4-11-1-8h-2l-2 4-3 3-10 5-5 4-9 4-16 4h-5l-1 3h-2l1 33 2 23 3 5 14 14 8 7 8 9 4 8 2 8-1 9-5 9-9 8-4 3-12 4h-17l-13-6-16-10-20-18-4-5-10-18-1-29-1-15v-122l1-24 4-18 6-10 7-6 6-3 29-5 19-1 15 1 16 4 9 8 6 8 4 1 7-10h2v-2l7-4 11 1 10 5 10 10 8 13 7 14 3 12 5 29 4 16h2l1 4h2l1-8 4-21 4-24 5-19 8-23 7-13 8-8 3-2z" fill="#36AB92"/>
<path transform="translate(659,1124)" d="m0 0h11l12 3 10 8 9 10 4 10 3 11 2 6 7-1 2-1 9-1h30l8 3 11 8 8 9 10 15 8 16 5 12 6 12v-10l4-61 3-19 7-8 10-5 19-3h34l13 4 12 7 12 11 10 13 10 18 8 18 2 13v13l-4 15-12 23-13 13 1 7 8 14 14 20 10 13 12 18 12 19 4 2 4 24-1 8-4 7-8 6-6 1-11-2-11-8-13-12-7-7-18-22-8-11-11-13-2-1-2 34-2 18-5 15-4 7-6 3-7 1-15-4-11-8-12-12-5-8-5-13-3-21v-68l-4 27-5 22-9 27-8 14-10 13-8 8-14 9-3 1h-10l-10-3-13-7-15-13-8-9-9-13-6-12-7-24-1-5v-10h1l4 19 6 17 4 9 7 12 4 5v2l4 2v2h2l5 5 8 6h10l12-1 11-6 5-5h2l2-5 4-5 5-8 8-20 4-9 2-8 3-11 3-21 1-18v-35l-3-25-4-13-2-5v-3h-2l-5-10-8-8-6-4-17-4h-16l-11 3-11 6-6 7-4 4-4 7-4 9h-1l-1-10-1-2-3-1h-8l-4 1-11 1-13 2-12 2-14 7h-2v2l-5 1-14-1-3-4-1-6 3-6 9-6 26-8 10-2 16-3 23-4 6-3 4-8 1-13-5-10-6-5v-2l-8-2h-24l-44 7-38 8-13 4-6 4-3 8h-1l1-9 7-6 13-5 38-8 35-6z" fill="#36AB92"/>
<path transform="translate(1248,1124)" d="m0 0 5 1 6 7 7 11 6 8 8-1 8-5 11-9 15-7 14-4 8-1h16l11 3 14 7 9 8 9 13 2 9 2 12v7l-2 4-1 17-3-3-3-6-4-1-10 5-3 4v6l5 7 4 3h6l3-2v8l2 11v14l-2 7-10 4-15 2-8 2-11 1-3 3-1 3-2 20-1 22v31l2 7 5 5 13 9 7 7 6 5 5 11 1 7-2 10-5 6-11 9-10 4-10 1h-11l-15-4-16-10-10-8-7-8-7-12-6-18-3-16-2-26-1-8-1-36-1-7-2 4-1 6-3 7-8 34-7 39-8 29-4 10-9 12-6 5-6 3-8-1-12-6-8-7-8-6-7-7-9-13-5-10-8-24 1-4 8 22 9 17 7 9v2l4 2 10 6 3 3v2l7 2 4 2 1-2 3-1 1-2h2v-6l3-5 5-16 4-9 6-20h2l1-9 4-15 4-27 7-31 2-14 2-10 4-19 1-9 4-13 6-23 3-18 4-14h2l-8-13-6-7z" fill="#36AB92"/>
<path transform="translate(1239,1122)" d="m0 0 9 1 5 5 9 11 4 7v2h-2l-2 12-6 27-5 21-4 13-1 9-3 14-4 24-8 36-3 22-5 18-1 6h-2l-1 6-6 20-4 9-4 12-2 3-1 6h-2l-1 3h-3l-1 3-4-2-7-3-5-5-4-3-5-3-5-5-8-11-9-19-5-15v-2h-2l-12-52-2-10-3-9-4-11-1-8h-2l-2 4-3 3-7 2 4-4 5-4 2-7-3-1-1-2-4-2-6-17-7-11-2-2h-6l-5-3-2-4 8-5 21-5 6 1 2 3v4h2l-1-8-2-6 1-2-1-33 8-10 9-6h7l8 4 6 8 2 5v4l2 1 3 10 4 9 5 20 2 19 2 25 1 16 3 16 3 3 8 1 2-8-1-12 3-9v-2l-4-2-2-10 1-4 1 4h2l1 4h2l1-8 4-21 4-24 5-19 8-23 7-13 8-8 3-2z" fill="#36AB92"/>
<path transform="translate(731,1172)" d="m0 0h16l17 4 9 7 8 9 2 4v3h2l5 14 2 7 3 25v35l-1 18-4 26-3 8-2 8-9 22-5 10-9 13-10 8-8 4-21 1-4-2-10-8v-2h-2l-6-7-7-10-5-10-6-16-4-15-2-8h-1l-2-26-1-18-3-6 1-5 4-12v-8l-5-10-8-5-6-6v-2l-4-2-5-4-16-3-4-3-4 1v-3l14-7 12-2 13-2 13-1 2-1h8l4 2 2 10 5-11 5-7 5-4 5-5 11-6z" fill="#37AB92"/>
<path transform="translate(1329,783)" d="m0 0h5l-1 6-5 13-11 20-7 11-7 10-11 16-10 13-8 10-9 11-9 9-8 10-12 18-3 3-1 2h-2l-2 4-7 11-14 15-4 5-6 4-12 2-16-2h-6l-19 10-10 7-11 7-13 6-6 2-11 1-3 1h-21l-11-3-12-7-8-6-11-7-6-7-14-14-5-6-3 1-2 4-8 7-9 9-15 11-19 8-3 1h-10l-12-6-13-4v-2h-5l-7 8-8 9-7 9-14 16-8 7-8 8-16 12-15 9-13 6-18 5-17-1-13-6-6-4-6-7h3v2l4 1h10l10-1 5-3h4v-2l12-5 10-7 6-4h2v-2l14-10 9-8h2v-2l5-5 4-2 2-4h2l1-4 6-5 3-4h2l2-5 2-3h2l1-4 4-4h2l2-5h2l2-4 6-6 5 1 5 3 1 5 4 8v2l11-1 9-2 5-1 5-2 2 1v-2l8-3 1-2 8-4 9-6h2v-2l8-7 12-11 9-6 1-1h5l3 7 4 15 6 9 7 7 7 8 6 4 10 4 5 4 2 1v2l7 1 1-1h7l21-4 10-2 17-9 17-11h2v-2l10-6 12-6 7 2v2h9l12-4 5-4h2l2-4 8-8 6-8h2v-2h2l3-6h2l2-5 6-7h2l2-4 14-18 9-10 7-9 4-5 5-5 8-9 10-14h2l2-5 8-11 6-8h2l2-4 4-5h2v-2h2l2-4 5-5h2v-2z" fill="#144D6C"/>
<path transform="translate(1707,577)" d="m0 0h10l12 3 7 4 9 8 7 10 7 14 2 9v14l-3 14-5 13-8 14-5 9-11 14-5 7h-2l-2 4-4 5-5 5-7 8-3 3h-2l-2 5-14 11-19 19-9 7-10 9-11 8-5 5-16 15-17 17-3 5-9 10-7 11h-2l-1 5-5 11-1 3h-2l-1 14 1 8v16l-4 6-8 7-5 2-2-7-2-8 1-30 4-20 4-13 5-10 10-14h2l2-4 42-42 4-5h2l2-4 5-5h2v-2h2l2-4 5-5 10-9 1-2h2v-2h2v-2h2v-2l8-7 9-9 1-2h2v-2h2l2-4 11-11 5-7h2l1-3h2l2-4 6-7h2l2-4 5-5 7-10 5-9 3-3 4-7 8-18 2-10v-11l-1-7h-2l-4-8-7-4-8-4-9-1-5-2-11 1-17 4-16 7-19 12-14 12-22 22-10 13-11 14-8 11h-2l-2 5-4 7h-2l-2 7-4 5-2 1-3 7-7 12-3 3-2 5-6 11-6 10-7 14-5 8-2-4 10-18 8-16 8-14 10-17 12-18 9-13 13-18 10-11 14-16h2l2-4 12-11 14-11 13-9 16-8 16-5z" fill="#0D5862"/>
<path transform="translate(646,804)" d="m0 0 4 1v2h3l1 2v7l-6 9-5 4-10 3h-27l-27-2-5 4-11 28-12 31-7 15-6 15-14 28-6 10h-2l-1 4-10 14-8 10-6 7-8 7-12 10-21 12-17 6-24 3-8-1-20-5-8-3-15-6-15-9-11-7-16-13-8-7-8-8-10-13-8-14-8-19-4-15-3-18-1-11v-15l1-7h1l1 10v11l2 18 6 24 11 24 4 7v2h2l6 8 1 3 3 1 3 4v2h2v2l4 2 11 9 10 7 16 8 5 2v2l6 1 31 5 16-1 24-6 12-6 9-7 4-3h2l2-4 6-5 5-5 3-1v-2h2l2-5 11-14 7-13 4-5 5-10 5-14 7-14 3-7 3-11 3-7 4-10h2l1-8 3-3 4-11 6-11 4-7 2-5 5-4 7-2h6l7-1 13 2 6 1h38l3-2 2-8h5z" fill="#144E6C"/>
<path transform="translate(659,1124)" d="m0 0h11l12 3 10 8 9 10 4 10 3 11 2 6 7-1 2-1 9-1h30l8 3 11 8 8 9 10 15 8 16 5 12 5 10 2 5 1 25v26l-2 16-5 25-10 30-8 14-10 13-8 8-14 9-3 1h-10l-10-3-13-7-15-13-8-9-9-13-6-12-7-24-1-5v-10h1l4 19 6 17 4 9 7 12 4 5v2l4 2v2h2l5 5 8 6h10l12-1 11-6 5-5h2l2-5 4-5 5-8 8-20 4-9 2-8 3-11 3-21 1-18v-35l-3-25-4-13-2-5v-3h-2l-5-10-8-8-6-4-17-4h-16l-11 3-11 6-6 7-4 4-4 7-4 9h-1l-1-10-1-2-3-1h-8l-4 1-11 1-13 2-12 2-14 7h-2v2l-5 1-14-1-3-4-1-6 3-6 9-6 26-8 10-2 16-3 23-4 6-3 4-8 1-13-5-10-6-5v-2l-8-2h-24l-44 7-38 8-13 4-6 4-3 8h-1l1-9 7-6 13-5 38-8 35-6z" fill="#144F6C"/>
<path transform="translate(1439,1125)" d="m0 0h14l10 3 18 8 13 10 7 6 9 11 9 14 8 19 2 9v15l-4 16-7 11-3 12 1 5 8 13 10 13 11 19 9 23 7 22 6 27 7 38 3 25v18l-3 10-7 9-10 5-10-2-10-6-16-12-7-8-4-11-6-35-7-36-7-30-4-15-5-10-5-4-7-3v66l-2 21-4 10-5 9-1 1-7 1h-9l-14-7-13-10-7-7-7-11-1-3v-8l2 4 4 10 7 8 3 2v2l4 2 6 5 9 3h2l4-5 6-1 2-5v-7l2-3 1-13 2-18 1-8-1-3 1-2v-14l-1-7h-2l-3-6-1-7v-15l1-1h11l14 7 5 6 1 3 4 4 7 14 5 16 3 12 5 21 6 31 2 10 2 18 4 15 4 7 8 4 5 1h4l2 1v3l7 1 8-2 1-8v-49l-1-26-1-11v-10l-2-10v-7h-2v-5l-2-1-2-11-4-10-3-9v-5h-2l-4-9-8-11-7-10v-2l-3-1-5-6-2-1v-2l-4-2-8-7-4-5v-5l10-14 7-17 1-10 1-17-1-13-3-7-1-4-3-1-7-8-11-10-10-6-14-8-7-2h-12l-10 3-12 7-5 6h-2l-2 4-6 5-1-2 6-10 7-7 16-8z" fill="#0D5862"/>
<path transform="translate(993,932)" d="m0 0h5l3 7 4 15 6 9 7 7 7 8 4 4-4 1-4-5-14-14-5-6-3 1-2 4-8 7-9 9-15 11-19 8-3 1h-10l-12-6-13-4v-2h-5l-7 8-8 9-7 9-14 16-8 7-8 8-16 12-15 9-13 6-18 5-17-1-13-6-6-4-6-7h3v2l4 1h10l10-1 5-3h4v-2l12-5 10-7 6-4h2v-2l14-10 9-8h2v-2l5-5 4-2 2-4h2l1-4 6-5 3-4h2l2-5 2-3h2l1-4 4-4h2l2-5h2l2-4 6-6 5 1 5 3 1 5 4 8v2l11-1 9-2 5-1 5-2 2 1v-2l8-3 1-2 8-4 9-6h2v-2l8-7 12-11 9-6z" fill="#144E6C"/>
<path transform="translate(857,1138)" d="m0 0h34l13 4 12 7 12 11 10 13 10 18 8 18 2 13v13l-4 15-12 23-13 13 1 7 8 14 14 20 10 13 12 18 12 19 4 2 4 24-1 8-4 7-8 6-6 1-11-2-11-8-13-12-7-7-18-22-8-11-11-13-2-1-2 34-2 18-5 15-4 7-6 3-7 1-15-4-11-8-12-12-5-8-3-7v-3h2l7 14 8 10 9 6 9 1 3-1 3-5h2l2-16 2-12 2-9 1-35v-18l1-2h4v2l4 2 10 12 6 8 6 9v3l3 1 3 4v2h2l7 9 8 10 9 11 14 15 8 6 7-2h12v-7l2-6v-11l-4-11-2-7-5-5-2-7-6-5-1-4-9-14v-2h-2l-6-11-6-7v-2h-2v-2l-5-1-4-5-9-12-6-9-1-6 2-7 8-11 2-3h2l2-5 6-9 1-2h2l2-6 2-2 4-15 1-10v-17l-5-9-12-18-13-10-7-5-4-2-9-2-11-1h-24l-21 4-8 3-6 7-1-2 7-8 10-5z" fill="#0D5962"/>
<path transform="translate(1248,1124)" d="m0 0 5 1 6 7 7 11 6 8 12-1-2 21-7 24-9 40-7 37v8l-3 7-8 32-8 44-8 29-4 10-9 12-6 5-6 3-8-1-12-6-8-7-8-6-7-7-9-13-5-10-8-24 1-4 8 22 9 17 7 9v2l4 2 10 6 3 3v2l7 2 4 2 1-2 3-1 1-2h2v-6l3-5 5-16 4-9 6-20h2l1-9 4-15 4-27 7-31 2-14 2-10 4-19 1-9 4-13 6-23 3-18 4-14h2l-8-13-6-7z" fill="#144C6B"/>
<path transform="translate(775,831)" d="m0 0h6l1 1v17l-6 18-11 22-4 7h-2l-1 4-9 13-6 9-14 19-6 5-4 7-9 11-12 13-13 13-6 5h-2v2l-6 4-9 8-10 6-9 5-13 2-8-5-10-5-14-9-6-7 1-2 5 4 13 5 7 4 13-1 2-4 2-3 5-3 3-1 2-4 5-5 3-1v-2h2l1-3 3-1 1-2h2l2-4 5-3 5-7 3-3h2v-2h2l2-4h2l2-5 4-6 6-8h2l2-5 6-9h2v-2l5-5 9-11 5-7h2l2-5 6-9 2-5h2l1-5 4-5 1-4h2l2-6h2l2-5 5-8h2l1-4 4-6z" fill="#144D6C"/>
<path transform="translate(1336,1124)" d="m0 0h16l11 3 14 7 9 8 9 13 2 9 2 12v7l-2 4-1 17-3-3-3-6-4-1-10 5-3 4v6l5 7 4 3h6l3-2v8l2 11v14l-2 7-10 4-15 2-8 2-11 1-3 3-1 3-2 20-1 22v31l2 7 5 5 10 7v3l-15-10-6-2v-2h-2v2l-4 1-7-3-3-7-2-12-1-2-1-26 1-23v-29l5-4 28-5 17-5 5-1v-2l4-1v-14l-8-11-10-8-9-3-23-4-2-3 1-5 7-6 10-5 15-2 21-2 4-2 1-2h2l-2-10-3-6v-5l-3-6v-2l-4-2-10-7-7-3-7-1h-17l-11 2-4-1 11-3z" fill="#134D6B"/>
<path transform="translate(1756,804)" d="m0 0 12 1 7 2 5 1 5-1 1-2 1 1v5l-10 8-11 5-12 2-24 2-10 3-1 3h2l3 5 7 8 8 7 7 6v2l4 2 11 12 12 16 9 14 8 17 3 12 1 7v17l-3 14-8 16-8 10-8 8-14 9-8 4-15 5-7 1h-10l-14-2-11-4-18-11-11-9-12-13-10-16-7-12v-4l3 1 3 6 10 16 9 12 9 8 12 7 8 3 5 1h17l13-2 16-7 9-5 10-8h2l2-4 6-8 5-8 2-7 3-4 2-10 1-18-2-14v-7l-5-9-4-5v-2h-3l-5-9-6-5v-2l-3-1-3-5-5-5-2-4-4-1-4-4v-2l-4-2-5-5v-2l-4-2-7-8-5-3-7-4-3-6 1-6 8-4 7-2 26-3z" fill="#16526D"/>
<path transform="translate(1497,941)" d="m0 0h4l5 9 5 16 6 9-5-2-4-3-3 1-7 9-10 10-11 9-12 6-8 2-17 1-13-5-15-10-11-7-11-12-3-3-5 1-7 8-9 10-11 9-8 7-15 11-13 8-17 9-4 2-5-1-11-6-20-10-7-7 3-1 2 2 18 3 7 3h5l3-3h3l2-4 9-7h2v-2h2l1-3 9-7h2v-2l5-3 10-9 5-5 8-6 7-8 8-7 11-7 5 1 4 7 2 9 6 10 8 7v2l5 2 8 4v2l4 1 4 2 7-1 2-1 9-1 10-3 15-9 7-7 9-11 7-7 7-11z" fill="#144E6C"/>
<path transform="translate(766,702)" d="m0 0 4 2 7 7 10 15 7 12 5 14 3 12 2 11 6 11 7 7 7 8 10 13 7 10 6 12 3 11v20l-4 15-6 15-5 12-3 4-3 9-3 5-4 8-2 2-6 9-5 9-8 16-3 8-4 10-5 12-3 4-10 5h-6l-3-2-1-7 4-14 6-18 19-38 10-19 9-19 3-1 2-6 1-4h2l1-5 3-9 7-18 2-8 1-5 2-5-1-8-7-10-10-11-7-8-7-7-5-2-1-4h-2v-2h-6l-2-2v-10l2-4-1-8-6-27-7-12-7-8v-2h-2z" fill="#0D5862"/>
<path transform="translate(1082,743)" d="m0 0h18l21 7 11 7 12 11 7 8 9 14 5 11 5 22v10l-4 12-9 16-10 14-5 4-6 5v-2l-18 10-1 1-19 2-2 1h-7l-13-2-5 3-4-1-1-2-4 1-2 4-1 15 4 10 8 12h-2l-1 5-8-1-8-6-7-11-3-11v-23l4-11 6-2h7l7 1 17-1 20-4 12-5 9-6 8-6 11-12 9-16 1-9v-14l-1-4-1-13-4-7-7-6-6-8v-2l-4-2-12-8-9-5-10-3h-16l-17 5-17 9-7 6-2-1 8-7 19-10z" fill="#134D6B"/>
<path transform="translate(642,1216)" d="m0 0h7l7 6 7 8 9 6 4 9v8l-6 18-6 3-18 4-22 4-1 1-1 8v33l1 23v34l-2 14-3 6-7 6-9 2-8-1-16-8-13-11-5-5-2-5 7 6 9 8 5 3 8 1 4-2 7-1 2-10 2-24v-88l5-5 35-9 18-4 7-1-1-4-6-4-3-8h2l-2-4-2-1v-2l-3 1-6-7-4-6z" fill="#144F6C"/>
<path transform="translate(1363,719)" d="m0 0 7 1 14 8 9 11 8 13 5 12v18l-2 13-11 25-10 19-8 16-13 21-7 10-6 9-12 16-8 11-2 3h-2l-2 4-11 12-9 8-6 2 1-7 8-20 7-10 9-15 11-18 5-9 7-12 6-9 8-13 6-10 4-8h2l1-5 9-20 5-11 3-10 1-8 1-3 3-14-2-6-6-9-10-8-9-3v-2z" fill="#113459"/>
<path transform="translate(1668,864)" d="m0 0h6l5 5 2 7 6 8 2 3-9 1-6 3-12 11-8 11-13 17-4 5-2 6h-2l-1 4-1 1-1 8h-2l-2-3-6 10-7 9-9 10-9 8-14 9-7 4-10 3-7-1-7-4-10-4-13-7-9-11 1-2 5 4 6 3 15 5 14 1v-2l8-4 4-3h2v-2l7-5 2-3h2v-2h2l2-4 7-8 6-8h2l2-5 9-11 7-9 9-13 12-17 9-12 11-12z" fill="#11355A"/>
<path transform="translate(981,732)" d="m0 0 4 2 7 10 7 11 5 10v9l-6 12-10 19-16 31-7 16-2 6h-2l-3 10-6 19-3 12-1 9-4 5-6 8-3 3-8 1-2-3v-14l6-30 2-9 5-18 3-9 4-10 2-6 3-7 2-5 5-7 2-5 2-3h2l1-5 3-5 3-3 4-6h2l2-4 7-3 4-1 2-1 1-3h2l1-11-6-10-7-3-3-3v-2l-1-2 2-1-2-2z" fill="#144D6C"/>
<path transform="translate(1079,1133)" d="m0 0 11 1 9 4 9 10 5 5h2l7-10h2v-2l7-4 11 1 10 5 10 10 8 13 7 14 3 12 5 29 2 7 3 19 4 4-3 9 1 12-2 6-1 2h-8l-4-4-3-16-3-41-2-19-6-23-5-12-5-14-6-8-7-3h-7l-10 7-6 8v11l1 22-1 3 3 8v8l-1-3h-2l-2-6-6-1-21 5-7 4-25 4-12-1-3-4v-7l3-7 12-6 11-3 9-3 16-5 10-2 3-3 2-9-3-9-6-5v-2l-5-2-12-6v-2z" fill="#0D5862"/>
<path transform="translate(1671,737)" d="m0 0 2 1v2l5-2-3 6h-3l-2 4h-3v6l2 1-5 7h-2v2l-7 2-5 6-5 5h-3v3l-4 4h2l-1 4-6 4-18 18h-2l-2 4-13 13-4 8-11 12-6 10h-2l-1 5-5 11-1 3h-2l-1 14 1 8v16l-4 6-5 5-5 1-4-8-1-9 2-25 4-20 3-10 5-12 1-2h2l2-6 4-5h2l2-4h2l2-4 34-34 7-8 10-10h2l1-3 8-7 9-8h2l1-3 4-3 7-1 5-4z" fill="#11365A"/>
<path transform="translate(994,660)" d="m0 0 10 1 8 5 5 5 12 15 7 8 4 9 1 10-3 7-4 5-8 7-5 2h-5l-3 3-5-2-10-8-12-9-10-8-7-9-3-3 2-9 5-10 9-10 8-7z" fill="#36AA92"/>
<path transform="translate(646,804)" d="m0 0 4 1v2l2 1v9l-6 8h-4l-16-2h-12l-6 1-17-2h-7v-2h-11l-5 2-8 10-5 13-2 4-4 10h2l-3 9-3 7-4 10h-2l-1 6-3 5-7 14-3 1-1 4-6 11-7 11-4 7h-2v2l-5 5-6 11-8 10-2 4h-2l-1 4-4 5-8 6-11 8-9 6h-2v2l-18 8-15 2v5l-4 1-2 5h-12v-1l-6-1v-2l-5-1-8-4-4-1-5-2-9-3-19-10-8-5 2-1 16 8 5 2v2l6 1 31 5 16-1 24-6 12-6 9-7 4-3h2l2-4 6-5 5-5 3-1v-2h2l2-5 11-14 7-13 4-5 5-10 5-14 7-14 3-7 3-11 3-7 4-10h2l1-8 3-3 4-11 6-11 4-7 2-5 5-4 7-2h6l7-1 13 2 6 1h38l3-2 2-8h5z" fill="#0D5862"/>
<path transform="translate(1448,1297)" d="m0 0h11l14 7 5 6 1 3 4 4 7 14 5 16 3 12 5 21 6 31 2 10 2 18 4 15 6 10 10 7 13 8v2l2-1 2-5 6 1 5 1 10-9 2-8v-22l1-2-1-3-1-19h1l4 30v18l-3 10-7 9-10 5-10-2-10-6-16-12-7-8-4-11-6-35-7-36-7-30-4-15-5-10-5-4-7-3v66l-2 21-4 10-5 9-1 1-7 1h-9l-14-7-13-10-7-7-7-11-1-3v-8l2 4 4 10 7 8 3 2v2l4 2 6 5 9 3h2l4-5 6-1 2-5v-7l2-3 1-13 2-18 1-8-1-3 1-2v-14l-1-7h-2l-3-6-1-7v-15z" fill="#134D6B"/>
<path transform="translate(873,1318)" d="m0 0h4v2l4 2 10 12 6 8 6 9v3l3 1 3 4v2h2l7 9 8 10 9 11 14 15 8 6 1 2h16l5-1 1-6 1-25-1-7-3-4-3-8 1-3 11 17 4 2 4 24-1 8-4 7-8 6-6 1-11-2-11-8-13-12-7-7-18-22-8-11-11-13-2-1-2 34-2 18-5 15-4 7-6 3-7 1-15-4-11-8-12-12-5-8-3-7v-3h2l7 14 8 10 9 6 9 1 3-1 3-5h2l2-16 2-12 2-9 1-35v-18z" fill="#134C6A"/>
<path transform="translate(695,667)" d="m0 0 3 1 4 10 1 4v9l-9 2-3 7-2 1h-7v2l-10 3-13 8-16 8-10 7-9 8-9 11-7 8-7 9-5 2h-7l-10-3-1-4 4-10 5-10 11-14 11-10 8-5h2v-2l5-3 4-4 4-1 11-6 8-4 10-4 16-6 13-3 1-2 4-1z" fill="#144D6C"/>
<path transform="translate(1316,808)" d="m0 0 3 1-1 7-12 20-6 8-9 13-8 11-10 13-15 16-4 5h-2l-2 4-5 8-2 6-6 8-4 5-1 2h-2l-2 4-7 11-14 15-4 5-7 3h-6l4-6 7-6 5-10 3-7 6-16 2-2 3-9 13-19 11-14 11-13 5-5 9-10 16-20 7-9 5-3h5v-2l5-2v-5l3-2 2 1 2-4h2z" fill="#113559"/>
<path transform="translate(1476,820)" d="m0 0h14l6 2 1 4v7l-9 19-3-1v-9l-9 3-2 5-4 4-5 8-2 1-2 5-2 2-2 1-1 6h-2l-3 9-4 8-1 4-2 1-1 8h-2l-1 7v13l8-11 2-3h2l-1 5-7 10-2 2-3 8-4 5-5-1-5-6-3-8v-15l2-19 7-20 8-16 11-18 14-15 7-4z" fill="#113459"/>
<path transform="translate(1091,1213)" d="m0 0 4 1 7 10 4 11 3 8 4 2 3 3-1 7-7 6-8 7-12 6-16 4h-5l-1 3h-2l-1 7v46l-3 6-2-4v-15l2-6h-3l-1 16-1 10-1 12-4-2-1-1v-8l-3-6-2-12-1-36v-9l2-20 2-4 29-3 14-3 4-1 1-10v-11l-2-1-3-12z" fill="#0D5862"/>
<path transform="translate(1752,604)" d="m0 0 4 5 4 11 1 5v14l-3 14-5 13-8 14-5 9-11 14-5 7h-2l-2 4-4 5-5 5-7 8-3 3h-2l-2 5-14 11-19 19-9 7-10 9-11 8-5 5-16 15-15 15v-3l37-37 4-1 1-4h-2l2-4h2v-3l6-3 3-5 6-5h5v-2l3-2 3-5-1-1v-6l4-2 1-2h3l2-5-4 1-2-2h-2l-2 4-4 3-7 1-9 8-2-1 16-16 4-2 5-4 11-7v-2l5-2 2-4h2l2-4 7-9 3-3 5-2 3 2 1 1 1-2h2v-4h2l1-4 3-4h3l1-5 3-1 1-5 4-4 3 1 2-2 1 1 3-9 3-3 5-13 1-2h2l4-16 2-5-4-12-2-5z" fill="#144D6C"/>
<path transform="translate(354,769)" d="m0 0h33l11 2 9 5 12 11 7 8 13 22 5 8 4 14 1 6v31l-5 23-5 12-8 16-3 7h-2v3l-5 5-3-1-1-1-1-2-13-4-13-8-6-3 4-1 7 1 5-2h6l2-5 1-2 8-4 7-12 4-13 2-15 1-5 1-9v-17l-1-11-2-9-1-5-1-6-1-5-3-1-1-5-6-8-5-5-8-7-6-3-12-2h-35l-19 5-12 6-13 11-7 6-12 16-7 12-3 6-1-3 8-16 13-17 13-12 11-7 12-6 12-3z" fill="#0D5862"/>
<path transform="translate(1779,903)" d="m0 0 3 3 8 17 3 12 1 7v17l-3 14-8 16-8 10-8 8-14 9-8 4-15 5-7 1h-10l-14-2-11-4-18-11-11-9-12-13-10-16-7-12v-4l3 1 3 6 10 16 9 12 9 8 4 4 10 6 11 4 1 1h21l7-4 12-3 14-8 13-9 7-8 3-1 2-4 4-7h2l2-5 3-7h2l2-5v-8l-1-5v-15l-2-12-2-4z" fill="#144D6C"/>
<path transform="translate(368,818)" d="m0 0h11l2 3 1 11-6 3-6 7-8 4-13 13-7 12-3 11-1 7v13l2 13 7 17 8 13 8 8 12 7 8 2v2l-9-1-15-8-7-4-5-7v-2h-2l-3-4-1-6-3 1-1-3h-2l-8-10-5-12-2-17v-11l3-19 5-13 8-10 7-9 10-7z" fill="#134B6B"/>
<path transform="translate(993,932)" d="m0 0h5l3 7 4 15 6 9 7 7 7 8 4 4-4 1-4-5-14-14-5-6-3 1-2 4-8 7-9 9-15 11-19 8-3 1h-10l-12-6-13-4v-2h-5l-3 3h-2l1-5 1-6-1-6 2 3 2 5 11-1 9-2 5-1 5-2 2 1v-2l8-3 1-2 8-4 9-6h2v-2l8-7 12-11 9-6z" fill="#144E6C"/>
<path transform="translate(1334,1248)" d="m0 0 4 1-12 3 2 4 1 4 2 1v3l11 2 1 1-1 18-1 7-1 22v31l2 7 5 5 10 7v3l-15-10-6-2v-2h-2v2l-4 1-7-3-3-7-2-12-1-2-1-26 1-23v-29l5-4z" fill="#0D5A62"/>
<path transform="translate(841,879)" d="m0 0 2 1-1 6-4 11-4 8h-2l-3 9-5 10-9 16-6 12-8 14-6 15-5 10-5 4-1 8-4 2-5-2v-15l-1-8 4-12h2l1-5 11-23 5-8 1-4h2l2-5h2l2-5 3-6 6-5 6-10 8-8h2v-2h2l1-4 4-3z" fill="#113459"/>
<path transform="translate(1163,804)" d="m0 0 2 4 3 14v12l-3 10-6 14-12 17-5 4-6 5v-2l-18 10-1 1-19 2-2 1h-7l-3-1v-2h-12l-2 2-4-1 2-5 1-2 17-2v-2l6-3 1-3 3-1 3 2 3-1 1-4 14-5 3-1v-2l12-9 11-12 5-6 2-1 1-5 2-4 2-11 1 4 4-2-1-6 1-8z" fill="#134C6B"/>
<path transform="translate(1250,1208)" d="m0 0 2 3-3 13-4 23-3 16-4 24-1 17 1 5-2 13 1 7 1 11-3 24-2 7-2-3-2 6v7l-7 14-4 9-2 4h-2l-2 4-7 4-5 2h-8l-20-15-8-8-9-13-5-10-8-24 1-4 8 22 9 17 7 9v2l4 2 10 6 3 3v2l7 2 4 2 1-2 3-1 1-2h2v-6l3-5 5-16 4-9 6-20h2l1-9 4-15 4-27 7-31 2-14 2-10 4-19 1-9z" fill="#0D5862"/>
<path transform="translate(794,1235)" d="m0 0h1l2 14v26l-1 20-1 7-1 18-4 21 4-1 2 5-2 18-2 7-3 10-4 2-1-4v-4h2l-2-2 2-9 2-7h2l-2-5-1 7-7 14-2 5h-2v6l-1 1-2 10-3 1v3l-4 1-2 4-4 3 2 1-3 5-3 2h-10l-10-3-13-7-15-13-8-9-9-13-6-12-7-24-1-5v-10h1l4 19 6 17 4 9 7 12 4 5v2l4 2v2h2l5 5 8 6h10l12-1 11-6 5-5h2l2-5 4-5 5-8 8-20 4-9 2-8 3-11 3-21 1-18z" fill="#134B6B"/>
<path transform="translate(741,1223)" d="m0 0 5 1 2 3v31l-1 9-2 43-3 13-2 5-1 4-5 1-3-1-3-9-2-11-2-25 2-26 2-14 6-15 4-7z" fill="#0D5A62"/>
<path transform="translate(809,1250)" d="m0 0 4 2 1 28-2 30-5 30-6 20-2 9-8 14-10 13-8 8-12 8-4-1 4-4-3-1 7-5 3-3h2v-3l2-1 2-10 2-7 2-1 4-10 4-8 1-8 2 1 1 5h-2l-2 9-1 6 1 3-1 4 1 3 3-3 3-13 2-9 1-13-2-2h-3v-7l4-21 3-13 3-5v-5l2-1 2-8 2-10 1-15z" fill="#113459"/>
<path transform="translate(1645,888)" d="m0 0 1 4-3 2-5 9h-2l-1 4-9 14-3 5v8l-2 4h-2l-4 8v7l-4 9-2 5-5 2-5-1v6l-2 3h-2l-1 4-7 4-1 6 3 1-15 9-10 3-7-1-7-4-10-4-13-7-9-11 1-2 5 4 6 3 15 5 14 1v-2l8-4 4-3h2v-2l7-5 2-3h2v-2h2l2-4 7-8 6-8h2l2-5 9-11 7-9 9-13 12-17z" fill="#154F6D"/>
<path transform="translate(1629,810)" d="m0 0 3 2-2 4-8 10-1 4-2 4-2 2-1 2h-2l-2 5h-2l-1 4-4 5-5 9-6 7-9 15-2 4h-2l-1 5-4 4-3 1-2 6-3-1-2-8v-14l4-12 5-11h2l2-5 6-8 15-16 7-7 7-6 5-3z" fill="#FDFCFC"/>
<path transform="translate(1264,1305)" d="m0 0h1l3 32 4 25 3 11 7 15 6 9 3 3v2l4 2 5 4 7 2h10l6-2 14-1 13-4 5-5 3-1v-2h2v-2l4-4 2-4 3-1v-8l4 2 5 11 1 7-2 10-5 6-11 9-10 4-10 1h-11l-15-4-16-10-10-8-7-8-7-12-6-18-3-16-2-26-1-8z" fill="#134D6B"/>
<path transform="translate(1105,1174)" d="m0 0h7v4h2l2 8-1 8 3 3v7l-3-6-6-1-21 5-7 4-25 4-12-1-3-4v-7l3-7 12-6 12-2 11-3 7-2 17-3z" fill="#144E6C"/>
<path transform="translate(1498,943)" d="m0 0 3 1 3 5 2 1 5 16 6 9-5-2-4-3-3 1-7 9-10 10-11 9-12 6-8 2-17 1-13-5-15-10-2-2 4-1 3 3 13 5 11 2 6 1h2l1-4 10-8 2-3 5-2 3-6 12-14 5-6h3l2-4 4-9z" fill="#15506D"/>
<path transform="translate(614,1265)" d="m0 0h5l-5 5-1 5v6l-2 1 1 8 1 28 1 38 2 4 1 15-1 14-6 11-9 5-6-2h-7l-8-4-1-2h8l4-2 7-1 2-10 2-24v-88l5-5z" fill="#0D5962"/>
<path transform="translate(1448,1297)" d="m0 0h11l-4 3h-2l1 7 6 4v19l2 13 2 11 2 14 1 14v8l-1 2h-3v7l-2 4-2 7-5 8h-2v2h-2v2h-9l-14-7-13-10-7-7-7-11-1-3v-8l2 4 4 10 7 8 3 2v2l4 2 6 5 9 3h2l4-5 6-1 2-5v-7l2-3 1-13 2-18 1-8-1-3 1-2v-14l-1-7h-2l-3-6-1-7v-15z" fill="#0D5862"/>
<path transform="translate(1063,893)" d="m0 0 4 1 1 2 5-1 3-2 13 2h7l7-1 1 1 12 2 1 4-6 8-7 8-9 6-9 7-10 5-5-2-1-3-4-2-5-6-3-9 1-14z" fill="#FEFDFD"/>
<path transform="translate(1273,1156)" d="m0 0 4 1 3 8v7l-8 28-8 32-5 30-1 3-4 21-2 8-2-1v-12l-4-1-3 1v-11l1-10 2-8h2l-1-6 2-5 1-7 2-2 4-25 2-12 3-9 5-16 4-11h2z" fill="#113459"/>
<path transform="translate(999,1369)" d="m0 0 5 5 6 9 8 8 2 1v2l4 2 12 4 5 2 8 1h11l13-4 7-3 4-4h2v-2l5-5 2-6 2-2 2-6 3 1 4 8 2 8-1 9-5 9-9 8-4 3-12 4h-17l-13-6-16-10-20-18-4-5-6-11z" fill="#154E6C"/>
<path transform="translate(677,1195)" d="m0 0h8l4 2 1 2v9l-3 10-9 20-3 2-1-3-4-2-8-5-6-6v-2l-4-2-5-4-16-3-4-3-4 1v-3l14-7 12-2 13-2 13-1z" fill="#FDFCFC"/>
<path transform="translate(1363,719)" d="m0 0 7 1 14 8 9 11 8 13 5 12v18l-2 13-11 25-10 19-8 16-13 21-7 10-6 9-12 16-8 11-2 3h-2l-2 4-11 12-9 8-6 2 1-7 8-20 7-10 9-15 11-18 5-9 7-12 6-9 8-13 6-10 4-8h2l1-5 9-20 5-11 3-10 1-8 1-3 3-14-2-6-6-9-10-8-9-3v-2zm39 46-3 12-1 3-1 4-3 11v2h-2l-2-8 1-5-3 4-9 19v3l-4 4-5 10-5 8-9 15-8 13-6 9-8 13-5 9-5 8v3h-2l-1 5-2 1-3 4-1 4-3 3 1 2h2l-7 9-4 2v5l-1 4 5 1 4-4 1-3 3-1 1-7 2-5h2v-2l4-1 3 2 11-15 3-5 9-12 6-9 14-22 5-8 11-23 8-16 7-16 2-8 1-15-2-7z" fill="#134D6A"/>
<path transform="translate(981,732)" d="m0 0 4 2 7 10 7 11 5 10v9l-1 3h-3l-1 5-4-1-2 6-9 2v2l-4 4-7 12-3 2-2 5-4 3-4 10-2 2-3 6h-2l-2 5h-2l1 3-3 1-2 6h-2l-1 6-3 5-6 21-2-1 2-12 5-18 3-9 4-10 2-6 3-7 2-5 5-7 2-5 2-3h2l1-5 3-5 3-3 4-6h2l2-4 7-3 4-1 2-1 1-3h2l1-11-6-10-7-3-3-3v-2l-1-2 2-1-2-2z" fill="#0D5962"/>
<path transform="translate(775,831)" d="m0 0h6l1 1v17l-6 18-4 8-1-3 5-12 3-8v-19l-8 3-6 9-9 15h-2l-2 5-10 17-9 13-3 5h-2l-2 5-4 6-4 4h-2l-1 5-9 13-5 5-9 13-2 4h-2l-1 4h-2l-1 5-3 1-2 5-4 4h-2l-2 5-12 13-10 10-2 3-3 1-3 3-4 1v2l-8 1-7 2-6-3-14-9-5-3-1-2 9 3 9 4 4 2 13-1 2-4 2-3 5-3 3-1 2-4 5-5 3-1v-2h2l1-3 3-1 1-2h2l2-4 5-3 5-7 3-3h2v-2h2l2-4h2l2-5 4-6 6-8h2l2-5 6-9h2v-2l5-5 9-11 5-7h2l2-5 6-9 2-5h2l1-5 4-5 1-4h2l2-6h2l2-5 5-8h2l1-4 4-6z" fill="#0D5962"/>
<path transform="translate(429,802)" d="m0 0 3 3 8 13 5 10 4 17v31l-5 23-5 12-8 16-3 7h-2v3l-5 5-3-1-1-1-1-2-13-4-13-8-6-3 4-1 6 2 6 3v2l7 1 4-2 3-6 1-5 5-5 7-11h2l2-8 4-1v-5l1-4 2-5v-8l4-9 4-12 1-2-3-13v-2h-2l-4-8v-3h-4l-5-17z" fill="#144D6C"/>
<path transform="translate(759,1170)" d="m0 0 5 1 12 8 9 10 10 15 8 16 5 12 5 10 2 5 1 25v26l-2 16-5 25-8 25-1-4 6-20 3-17 3-24 1-21-1-26-3-2-2 21-2 10-5 15-4 11-1 6h-1v-11l1-7 1-20v-26l-4-31v-7l-6-15-8-11-7-7-12-6z" fill="#144E6C"/>
<path transform="translate(368,818)" d="m0 0h11l2 3 1 11-6 3-6 7-6 3-2-1 8-7v-7h-2v-2l-14 1h-2v2l-4 1-4 2-2 4-2 2h3l1 4-7 3-1 2h-2l-1 2v-3l-3 3-3 8v12l3 10 2 1v7h2l2 14 2 12 1 4 5 14 6 11 7 8h-3l-5-5-2-5h-2l-3-4-1-6-3 1-1-3h-2l-8-10-5-12-2-17v-11l3-19 5-13 8-10 7-9 10-7z" fill="#0D5862"/>
<path transform="translate(873,1318)" d="m0 0h4v2l4 2 3 3-1 2-4-4v7l3 4 2 5-1 13 4 2-2 9-1 5 1 18-1 6-3 11-2 5 1 3-6 5-11 5-8-1-7-3 3-1 9-1 3-5h2l2-16 2-12 2-9 1-35v-18z" fill="#0D5862"/>
<path transform="translate(642,1216)" d="m0 0h7l7 6 7 8 9 6 4 9v8l-6 18-6 3-13 3h-25l-5 5-4-2-1-7 2-3 12-3 5-3 9-2 2-5 14-3 7-1-1-4-6-4-3-8h2l-2-4-2-1v-2l-3 1-6-7-4-6z" fill="#113459"/>
<path transform="translate(695,667)" d="m0 0 3 1 2 11 1 5h-2l-1 2-9-1v-2l-13 3-10 4-9 4-7 4-6 2-10 6-10 5-10 8-2 4h-2v3l-4 4-3 6h1l4-3 6-2v5l-3 1-1 4-1 2h-2l1 3-6 9h-2v2l-8 3-4-1 2 6 1 2-9-2-4-2 1-6 5-12 9-13 7-8 8-7 9-6h2v-2l5-3 4-4 4-1 11-6 8-4 10-4 16-6 13-3 1-2 4-1z" fill="#0D5862"/>
<path transform="translate(1329,783)" d="m0 0h5l-1 6-5 13-11 20-7 11-7 10-11 16-10 13-8 10-9 11-9 9-12 15 1-5 7-10h2l2-4 10-10 7-8 10-13 14-20 11-16 9-15 2-7-5 2-2 3-4 1-1 5-5 2v2l-7 2-5 4-7 10-12 14-9 11-3 3h-2l-2 4-12 14-7 9-6 4 2-4 10-13 8-9 8-10 5-5 8-9 10-14h2l2-5 8-11 6-8h2l2-4 4-5h2v-2h2l2-4 5-5h2v-2z" fill="#134C6B"/>
<path transform="translate(1725,848)" d="m0 0 4 2 9 5 12 12 13 14 2 5 5 2 9 13 2 9 2 5 1 13v14l1 6-1 6-2 4-3 3-4 8h-2l-2 5-4 6-5 5-9 8-11 7-14 8-13 3-4 3h-21l-9-4-10-5-7-5 2-1 10 6 8 3 5 1h17l13-2 16-7 9-5 10-8h2l2-4 6-8 5-8 2-7 3-4 2-10 1-18-2-14v-7l-5-9-4-5v-2h-3l-5-9-6-5v-2l-3-1-3-5-5-5-2-4-4-1-4-4v-2l-4-2z" fill="#0D5862"/>
<path transform="translate(1689,890)" d="m0 0 6 2 7 4 5 6v2h2l4 6 9 16 3 10-1 5-2 2h-6l-11-9-6-4-5-9-5-6-3-7-4-5-1-8 3-4z" fill="#FDFCFC"/>
<path transform="translate(848,843)" d="m0 0 2 4v20l-4 15-6 15-5 12-3 4-3 9-3 5-4 8-2 2-6 9-5 9-8 16-3 8-4 10-5 12-3 4-10 5h-6l-3-2-1-7 4-14 6-18 19-38 10-19 3-3 3-5h2l2-5 8-11 6-7 6-4 4-1 4-6 4-16v-3-7zm-7 36-6 3-2 2v3h-2v2l-4 2-7 7-6 10-6 5-4 8v2l-3 1-1 4h-2l-2 5-10 19-6 13v3h-2l-4 12 1 8v15l6 2 3-2 1-8 6-5 5-12 7-16 11-19 6-12 6-10 6-14v-2h2l6-12 3-10-1-4z" fill="#144D6C"/>
<path transform="translate(1229,899)" d="m0 0v3l-3 5h-2l-1 4-6 7-9 11-2 3h-2l-2 4h-2v3l-6 5h-2l-2 4-8 7h-2v2l-9 5-4 3-4-1-2-2-7 1h-9l-10 7-17 12-9 6-3 1-3 3-19 7-9 3h-7v-2l-5-1-12-3-7-3-5-5-1-2 4 1 6 4v2l7 1 1-1h7l21-4 10-2 17-9 17-11h2v-2l10-6 12-6 7 2v2h9l12-4 5-4h2l2-4 8-8 6-8h2v-2h2l3-6h2l2-5 6-7h2l2-4z" fill="#0D5962"/>
<path transform="translate(888,962)" d="m0 0 5 1-4 2-5 4-5 11-8 11-5 6-1 3h-2l-2 4-11 12-8 7-6 4-10 8-9 8-7 4-7 7h-2v2h-2v2l-7 4-1 4-3-2-4 1-5 5h-9l-9-3-6-4v-1l19-2 5-3h4v-2l12-5 10-7 6-4h2v-2l14-10 9-8h2v-2l5-5 4-2 2-4h2l1-4 6-5 3-4h2l2-5 2-3h2l1-4 4-4h2l2-5h2l2-4z" fill="#0D5862"/>
<path transform="translate(456,802)" d="m0 0h24l27 4-3 11-11 22-4 10-11 22-4 9-3 8-3 3-16 32-7 10-4 4 1-5 6-10 3-8h2v-4h2l2-5 8-16 8-15 9-20 4-10 4-11 4-13-1-1-12-1-12-4-5-2v-2l-5-1-3-4z" fill="#116167"/>
<path transform="translate(710,828)" d="m0 0 2 1-4 10-7 10-3 7-6 10-4 2-2 6-4 7h-2l-2 5-9 9-8 11-5 4-6 7 8-6 4-5 4-2-2 6-14 15-13 13-6 7-6 4-4 4-5 2v-4l3-3h2v-2h2v-2h2l2-4h2v-2l-8 7-8 8h-2v2l-8 7-11 13-1 2h-2l1-6 6-8 12-13 13-12 5-5 15-14 18-18 7-8 14-17 9-13 7-11 9-14z" fill="#144F6C"/>
<path transform="translate(1159,1151)" d="m0 0 5 5 10 17 4 11 8 40 4 23 4 4-3 9 1 12-2 1-2 5h-5l-3-3-3-8-3-28 1-7 4 1 3 3 2-6-3 2-3-1-2-6-1-1v-29l1-7-6-15-8-15-3-5z" fill="#144C6B"/>
<path transform="translate(954,720)" d="m0 0 2 1-2 5-6 5-9 12-7 12-2 6-2 2-2 5-3 7h-2l-3 9-4 8-2 3-1 5-2 1-1 5-5 11h-2l-2 7-4 9h-2l-1 6-8 16-5 9-5 8h-2l-1 7-5 8h-2l-1 4-8 17-5 9-5 8-3 7-7 12-7 10-2 4h-2l-2 5-1-3 12-20 4-8h2l1-4 4-8h2l2-7 1-3h2l2-5 14-27 10-19 10-21 7-16 11-24 11-23 11-21 7-11 10-14 7-7z" fill="#14516C"/>
<path transform="translate(1109,1196)" d="m0 0 6 1 3 7 1 6v28l-3 6-4-2-8-11-6-12-5-6h-6l-5-3-2-4 8-5z" fill="#FEFDFD"/>
<path transform="translate(1091,797)" d="m0 0h5l5 6 1 6-4 10-8 7-7 3-5 1h-14l-3-5 1-9 9-10z" fill="#113459"/>
<path transform="translate(1109,1244)" d="m0 0 4 1 3 3-1 7-7 6-8 7-12 6-16 4h-5l-1 3h-2l-1 2-2-8 3-6 4-2 1-2h2v-4l5-5 12-3 10-3 2-2 6-1z" fill="#16536E"/>
<path transform="translate(267,863)" d="m0 0h1l1 10v11l2 18 6 24 11 24 4 7v2h2l6 8 1 3 3 1 3 4v2h2v2l4 2 11 9 8 6 3 3 12 7 14 7 12 4 4 1 8 4 5 2v2h7l-1 2-13-1-16-4-16-8-10-6-13-9-17-14-11-11-10-13-8-14-8-19-4-15-3-18-1-11v-15z" fill="#134C6B"/>
<path transform="translate(1370,950)" d="m0 0 2 1-8 7-2 7h-2l-1 3-5-1-1 4 2 1v2h-2v2h-7v2h-2l-1 4-7 6h-2l-2 4-12 11-6 7-4 4-5 1v2l-6 4-3 7-6-2 1 3 3 2v2l-7-1-8-5-14-6-10-9 3-1 2 2 18 3 7 3h5l3-3h3l2-4 9-7h2v-2h2l1-3 9-7h2v-2l5-3 10-9 5-5 8-6 7-8 8-7z" fill="#0D5862"/>
<path transform="translate(1756,804)" d="m0 0 12 1 7 2 5 1 5-1 1-2 1 1v5l-2 2-11 3-11 6h-13l-7-2-5-4-6-1-7-1-1-3-13 1-10 3-3 3 2 6 3-5h5l4 4-2 6-4 2-7-4-3-6 1-6 8-4 7-2 26-3z" fill="#0D5962"/>
<path transform="translate(1693,578)" d="m0 0h9v1l-10 2-6 1v2l-15 6-14 8-10 7-13 11-22 22-10 13-11 14-8 11h-2l-2 5-4 7h-2l-2 7-4 5-2 1-3 7-7 12-3 3-2 5-6 11-6 10-7 14-5 8-2-4 10-18 8-16 8-14 10-17 12-18 9-13 13-18 10-11 14-16h2l2-4 12-11 14-11 13-9 16-8z" fill="#134D6A"/>
<path transform="translate(1684,912)" d="m0 0 5 2 7 8 4 8 14 10 7 7-1 7-4 4-8 1-15-1-7-6-2-3v-4l7-2-1-7-3-11-1-1-1-7z" fill="#134D6B"/>
<path transform="translate(634,1185)" d="m0 0h10l14 3 10 1 2 2v3l-7 2-21 2-15 5-2 2-10 1-13 1-1-9 6-5 6-3 20-4z" fill="#113459"/>
<path transform="translate(869,1190)" d="m0 0h8l7 4 4 6v6l-7 20-7 10-7-1-1-2-1-17 1-17-1-6 1-2z" fill="#124D6A"/>
<path transform="translate(1368,1177)" d="m0 0h7l11 5 3 7-12 6-5-1-3-6-7 1-3 1v2l-6 5-11 1-13-3-1-2 2-4h4v-2l4 1v-4l4-2h4v-2l2-1 16-1z" fill="#113459"/>
<path transform="translate(1016,671)" d="m0 0 5 5 8 10 7 8 4 9 1 10-3 7-4 5-8 7-5 2h-5l-3 3-5-2-10-8-12-9-1-2 6 3 14-1 11 3 5 1 4-5 2-6 7-3 1-3-1-6h-2l-3-9-8-9-5-8z" fill="#0D5862"/>
<path transform="translate(1163,804)" d="m0 0 2 4 3 14v12l-3 10-9 16-5 2v-4l-1-5-5-1-4 3h-2l-1 3-4 1v3h-2l-1 5-1 1h-6l-2 1-2-2h2v-2l12-9 11-12 5-6 2-1 1-5 2-4 2-11 1 4 4-2-1-6 1-8z" fill="#113459"/>
<path transform="translate(1377,1236)" d="m0 0m-2 1h2v2l-6 2-3 3-3 8-4 2-3 6 5 1 3-1h15v1l-15 2-8 2-11 1-4 3-1-2-11-3v-3l-4-2v-6l-3-1 5-2 9-2 16-4z" fill="#144E6C"/>
<path transform="translate(1674,645)" d="m0 0 4 3-1 4-7 9-6 5-2 4h-2l-2 4-8 10-10 8-7 1-5 2-2 3-1-3 6-9 6-7 8-10 6-5 5-5 7-6 7-7z" fill="#0D5962"/>
<path transform="translate(794,1235)" d="m0 0h1l2 14v26l-1 20-1 7-1 18-2 9h-2l-2 12-5 16-4 8h-2l-1 6-3 2-3 6-5 5-2 4h-2l-1 4-7 5v6l-2 3-4-2h-10v-2l-3 1-8-1-4-3 1-2 21-1 11-6 5-5h2l2-5 4-5 5-8 8-20 4-9 2-8 3-11 3-21 1-18z" fill="#0D5862"/>
<path transform="translate(354,828)" d="m0 0h14v2h2l1 7-8 7-7 8-7 7-5 8-4 2 2-5 5-11 2-7-5 1-6 7-7 2-1 2v-4l2-6 4 1 2-4 5-2v-3l-4 1 1-3 8-7 2-1 2 1v-2z" fill="#11355A"/>
<path transform="translate(1082,743)" d="m0 0h18l21 7 11 7 12 11 7 8 9 14 5 11 5 22v10l-4 12-3 5-1-2 4-9 1-5v-12l-3-13-1-4-1 9 1 5-2 2-4 1-2 9-5 9-3 1 2-5 4-7 2-9 2-24v-4l-6-11-7-9v-2l-4-2-10-8-6-4-6-2-9-5-10-3h-16l-17 5-17 9-7 6-2-1 8-7 19-10z" fill="#134C6A"/>
<path transform="translate(1453,1182)" d="m0 0 8 1 5 5-1 9-4 10-6 11-2 3h-5l-3-5-1-3v-13l4-13z" fill="#0D5763"/>
<path transform="translate(659,1124)" d="m0 0h11l12 3 10 8 3 3 3 6 4 9-1 5-4 4-3 6-1-2 2-5 1-13-5-10-6-5v-2l-8-2h-24l-44 7-38 8-13 4-6 4-3 8h-1l1-9 7-6 13-5 38-8 35-6z" fill="#134D6A"/>
<path transform="translate(1619,925)" d="m0 0v3l-1 2h-2l-1 4-3 5h-2l-2 5-6 9-6 8-4 5-1 3h-2l-1 4-7 10-4 1-1 2h-2v2l-11 6h-7l-2 1-9-2-3-2-5-1v-2h-2v-2h-5v-2l-7-1-5-6 1-2 5 4 6 3 15 5 14 1v-2l8-4 4-3h2v-2l7-5 2-3h2v-2h2l2-4 7-8 6-8h2l2-5 9-11z" fill="#0D5862"/>
<path transform="translate(642,1216)" d="m0 0h7l7 6 7 8 9 6 4 9v8l-6 18-6 3-13 3 1-3h3v-2l10-5 4-4v-5l-3-1h-10l-10 1 4-2 17-3-1-4-6-4-3-8h2l-2-4-2-1v-2l-3 1-6-7-4-6z" fill="#0E5B63"/>
<path transform="translate(1476,820)" d="m0 0h14l6 2 1 4v7l-9 19-3-1v-9l-9 3-2 5-4 4-3 5h-2l1-4 9-12 3-2h3v-2l4-3 6-1h2l1-1-1-11h-19l-1 3-6 3-6 5h-2v2l-5 2-2 4-6 9-5 9-6 11-7 21-1 18-2 8v8l2 9 4 5 5 1-1 2-5-1-5-6-3-8v-15l2-19 7-20 8-16 11-18 14-15 7-4z" fill="#115068"/>
<path transform="translate(1313,731)" d="m0 0 2 1-12 11-11 9-7 8-6 7-6 5-3 6-4 4-2-1 1-5-4-1-1 7 3 2-7 5-2-1v-3h-2l1-12v-22l-3-9v-3l6 7 7 14 5 8 7-1 7-9h2l2-4 15-14z" fill="#0D5862"/>
<path transform="translate(1497,941)" d="m0 0h4l4 7-1 2-3-2-1-4-4 2-3 8-3 4-4 2-9 11-8 10 1 2-4 3-4 1-5 6-7 5-1 3-6 1-6-2-11-2-10-5-5-3-9-7 2-1 11 6v2l4 1 4 2 7-1 2-1 9-1 10-3 15-9 7-7 9-11 7-7 7-11z" fill="#0D5862"/>
<path transform="translate(800,922)" d="m0 0 1 4-1 2h-2l-1 5-10 19-7 16h-2l-3 15 1 5v15l5 1 2-1 1-8 6-5 5-12 7-16 11-19 3-5 2-1-2 6-7 12-8 16-3 8-4 10-5 12-3 4-10 5h-6l-3-2-1-7 4-14 6-18 19-38z" fill="#124E69"/>
<path transform="translate(939,871)" d="m0 0 2 1v17l2 12 1 7-3 10-5 5h-6l-3-2-1-9 3-11 4-2-1-7 3-16z" fill="#113459"/>
<path transform="translate(1119,868)" d="m0 0 2 2-3 5h-3l-1 3-5 5 1 8-13 3h-9l-6-1h-8l-2 2-4-1 2-5 1-2 17-2v-2l6-3 1-3 3-1 3 2 3-1 1-4z" fill="#113459"/>
<path transform="translate(1647,749)" d="m0 0 2 1-12 13-5 4-18 18-7 8-30 30-5 6h-2l-2 4-4 7h-2l-2 6-5 14-3 12-3 22-1 20 4 11 3 1-4 3-3-1-3-14 1-30 4-20 4-13 5-10 10-14h2l2-4 42-42 4-5h2l2-4 5-5h2v-2h2l2-4 5-5z" fill="#0F5365"/>
<path transform="translate(1439,1125)" d="m0 0h14l10 3 18 8 13 10 7 6 9 11 9 14 5 11-1 3-10-18-8-12-6-5v-2l-4-2-7-4-5-4-13-8-9-5-7-2h-12l-10 3-12 7-5 6h-2l-2 4-6 5-1-2 6-10 7-7 16-8z" fill="#134D6B"/>
<path transform="translate(979,943)" d="m0 0v3l-5 5h-2l-1 4-4 1v2h-2v2h-2l-2 7h-2l-1 4-5 4-3 3-9 4-10 3-4-1-1 4-7-1v-3l-2-1h-7l-1 3-7-1-1 2h-2l-1 3 1-5 1-6-1-6 2 3 2 5 11-1 9-2 5-1 5-2 2 1v-2l8-3 1-2 8-4 9-6h2v-2l8-7z" fill="#0D5862"/>
<path transform="translate(1478,845)" d="m0 0 5 1-1 7-4 3-2-1-1 5v4l-8 16-7 12-4 4-1-12-2-1 1-6 5-9 1-2h2l1-4 2-2 2-4 2-2 5-6z" fill="#FDFCFC"/>
<path transform="translate(1377,804)" d="m0 0 2 3 1 3-3 1-2 5-5 9-8 14-8 13-6 9-11 18-7 12-4 7-2 1v3h-2l-1 5-4 5-2 5-2 2v2h2l-2 4-5 6-4 1 1 5-1 4 4 1 3-6 2-2 5-2 2-1-2 4-11 11-8 5h-2l1-7 8-20 7-10 9-15 11-18 5-9 7-12 6-9 8-13 6-10 4-8h2l1-5z" fill="#105167"/>
<path transform="translate(954,720)" d="m0 0 2 1-2 5-6 5-9 12-7 12-2 6-2 2-2 5-3 7h-2l-3 9-4 8-2 3-1 5-2 1-1 5-5 11h-2l-2 7-3 3 1-6 3-7 6-11 1-2h-2l1-6 19-38 9-14 10-14 7-7z" fill="#124966"/>
<path transform="translate(1369,1376)" d="m0 0h2l2 6-2 5h-4v5l-2 3h2l-1 4h-3l-1 2-5 1 2 3 3-1v4l-2 2-4 3-10-1-7 1-4 1-6 2h-5-3l-13-2-7-3-1-2 7 1h10l6-2 14-1 13-4 5-5 3-1v-2h2v-2l4-4 2-4 3-1z" fill="#0D5862"/>
<path transform="translate(1668,864)" d="m0 0h6l5 5 2 7 6 8 2 3-9 1-6 3-12 11-8 11-13 17-4 5-2 6h-2l-1 4-1 1-1 8h-2l-2-3-2 2 1-5 6-8 5-9 4-6 5-5 1-2h2l2-5 8-9 9-11 5-12 1-3 3-3-2-7h-8l-8 7-9 12-3 1 2-4 9-11 9-8z" fill="#124E6A"/>
<path transform="translate(1632,817)" d="m0 0 2 1-2 5-9 12-4 6-6 7-5 12-6 7h-2l-1 3-4 4-6 10-10 15-6 8-1-2 4-8 3-4 2-6h2l2-6 10-16 6-7 5-8 4-7 3-3 3-4 3-6 4-2z" fill="#16566E"/>
<path transform="translate(1386,1193)" d="m0 0 4 1 3 4 1 7v6l-4 7-2 2h-6l-7-6-3-5v-6l5-6z" fill="#FEFDFD"/>
<path transform="translate(1377,1238)" d="m0 0 7 2 1 3v3l2 8-4 1-2 4-3 1-12 1-5 1-4-2 4-7 4-2 3-8h2l1-3z" fill="#113459"/>
<path transform="translate(1097,1371)" d="m0 0 3 1 2 8-4 5-3 9-3 2-1 3-15 6-6 1-19 2-9-3-10-3-1-3 5 1 5 2 8 1h11l13-4 7-3 4-4h2v-2l5-5 2-6 2-2z" fill="#0D5962"/>
<path transform="translate(857,1138)" d="m0 0h34l13 4 12 7 12 11 5 6-1 2-13-11-14-10-4-2-9-2-11-1h-24l-21 4-8 3-6 7-1-2 7-8 10-5z" fill="#124E6A"/>
<path transform="translate(354,769)" d="m0 0h33l11 2 9 5 12 11 3 4-4-2-10-8-7-5-4-2-12-2h-35l-19 5-12 6-13 11-7 6-12 16-7 12-3 6-1-3 8-16 13-17 13-12 11-7 12-6 12-3z" fill="#16586E"/>
<path transform="translate(785,729)" d="m0 0h2l6 10 4 10 3 14 2 13 4 9v2l-5-1-1-4h-2v-2h-6l-2-2v-10l2-4-1-8z" fill="#0D5962"/>
<path transform="translate(368,818)" d="m0 0h11l2 3 1 11-6 3-6 7-6 3-2-1 8-7v-7h-2v-2l-14 1h-2v2l-4 1-4 2-2 4-3 1 2-4 12-10 9-4 6-1z" fill="#144D6C"/>
<path transform="translate(1106,1152)" d="m0 0 6 5 4-1 1 2 1 30-1 3 3 8v8l-2-3-1-7-3-4 1-8-1-7h-2v-4l-26 5-12 3-11 3-1-2 25-7 5-2 10-2 3-3 2-9z" fill="#0D5962"/>
<path transform="translate(1576,680)" d="m0 0v3l-1 5h-2l-2 7-4 5-2 1-3 7-7 12-3 3-2 5-6 11-6 10-7 14-5 8-2-4 10-18 8-16 8-14 10-17 13-19z" fill="#115068"/>
<path transform="translate(1064,1188)" d="m0 0h22v2l9 1v2h3l-1 3-16 2h-5l-2-1h-7l-4-1-13 1-3-1v-3l8-4z" fill="#113459"/>
<path transform="translate(1312,798)" d="m0 0v3l-6 8h-2l-2 4h-2l-1 3h-2l-2 5-5 7h-2v3h-2l-1 7-10 11-8 10-8 9h-2l-2 4-12 14-7 9-6 4 2-4 10-13 8-9 8-10 5-5 8-9 10-14h2l2-5 8-11 6-8h2l2-4 4-5h2v-2z" fill="#105167"/>
<path transform="translate(766,702)" d="m0 0 4 2 7 7 10 15 7 12 5 14 3 12 2 11 6 11 7 7 7 8 10 13 6 8-1 2-5-5-12-14-11-12-5-5-4-11-2-5-2-13-3-12-4-10-10-15-8-11-2-4h-2z" fill="#124F6A"/>
<path transform="translate(1234,1123)" d="m0 0h5l-4 3-7 6-8 16-6 17-5 19-5 18-2 9h-1v-13l5-22 10-30 7-13 8-8z" fill="#14526B"/>
<path transform="translate(1016,671)" d="m0 0 5 5 8 10 7 8 4 9 1 10-3 7-4 5-8 7-5 2h-5l-3 3-5-2-10-8-7-5 2-1 9 4v-2l8-1 3 2-1 5-3 3 11-1 7-4h2l1-3 6-5 2-3-1-13-5-10-5-5-8-10-3-5z" fill="#134C6B"/>
<path transform="translate(729,1170)" d="m0 0h18l12 1 12 6 10 10 6 9 6 15 1 13v10h-1l-3-17-3-10-2-5v-3h-2l-5-10-8-8-6-4-17-4h-16l-11 3-7 3 1-4 11-4z" fill="#0D5862"/>
<path transform="translate(1280,1171)" d="m0 0 1 3-6 21-9 40-7 37v8l-3 7-4 15h-2l2-13 3-14 2-12 1-1 6-35 11-42 4-13z" fill="#115168"/>
<path transform="translate(488,840)" d="m0 0 1 3-2 7h-2l-1 10-4 7-3 5-6 16-3 3-16 32-7 10-4 4 1-5 6-10 3-8h2v-4h2l2-5 8-16 8-15 9-20 4-10z" fill="#175770"/>
<path transform="translate(1091,797)" d="m0 0h5l5 6 1 6-4 10-3 2 2-6 2-4v-6l-1-2-7 1-3 6h-1l-1-7-3 3-5 1v2l-4 1-2 4-3 3-4 1-1 5 2 6 15-2h5l-3 2-5 1h-14l-3-5 1-9 9-10z" fill="#115168"/>
<path transform="translate(1121,755)" d="m0 0 4 1 10 7 9 7 10 14 4 8 1 4h-2v10l-1 14-2 9-7 12-2-1 7-13 1-9v-14l-1-4-1-13-4-7-7-6-6-8v-2l-4-2-9-6z" fill="#0D5962"/>
<path transform="translate(982,1374)" d="m0 0h2l3 4 3 1 4 24-1 8-5 2-2-2v-9h-4v-15l2-5z" fill="#123B5E"/>
<path transform="translate(665,904)" d="m0 0 1 2-4 6-11 12-14 14-6 7-6 4-4 4-5 2v-4l3-3h2v-2h2v-2h2l2-4h2l2-4 11-9 6-7 5-5 6-5 5-5z" fill="#0D5863"/>
<path transform="translate(1363,1412)" d="m0 0h4 2l-2 4-6 5-10 4-10 1h-11l-15-4-4-2v-2h8l5 2 6 1h11l7-1v-2l10-3 4-2z" fill="#123B5E"/>
<path transform="translate(1479,769)" d="m0 0h17l12 1 5 3-4 2-1 1h-7l-13-2h-17l-22 3-4 2-4-1 11-5 14-3z" fill="#0D5962"/>
<path transform="translate(974,1360)" d="m0 0 4 4 5 8 1 8 2 1-3 6-1 15 4-2 1 7 1 5h4l-2 5-4 3-1-5-6 2-2-1-7 2h-6l-5-2v-1l15-1 5-1 1-6 1-25-1-7-3-4-3-8z" fill="#154F6D"/>
<path transform="translate(677,1318)" d="m0 0h1l4 19 6 17 4 9 7 12 4 5v2l4 2v2h2l5 5 11 9-3 3-14-12-8-9-9-13-6-12-7-24-1-5z" fill="#124F69"/>
<path transform="translate(1523,1232)" d="m0 0 2 1-1 5-6 9-3 12 1 5 8 14-4-2-6-8-8-6-5-6 1-3 9 1-1-9 4-2 3-1 5-9z" fill="#144B6B"/>
<path transform="translate(1079,1133)" d="m0 0 11 1 9 4 9 10 5 5h2l7-10h2v-2l7-4h5l-4 4-9 6-7 9-4 2-8-7-6-5v-2l-5-2-12-6v-2z" fill="#134D6A"/>
<path transform="translate(1452,838)" d="m0 0 1 3-6 8-3 6-6 10-6 14-4 13-1 18-2 8v8l2 9 4 5 5 1-1 2-5-1-5-6-3-8v-15l2-19 7-20 8-16 11-18z" fill="#105267"/>
<path transform="translate(1450,1184)" d="m0 0 5 2-1 5-6 1v4h2v9l5-2-1 12v4l-1 2h-5l-3-5-1-3v-13l4-13z" fill="#134C6B"/>
<path transform="translate(449,1023)" d="m0 0 3 1-14 5-10 3-19 2-8-1-20-5-1-2 9 1 27 1 13-1 17-3z" fill="#37AC93"/>
<path transform="translate(1320,813)" d="m0 0 1 2-11 18-7 10-11 16-10 13-8 10-9 11-9 9-12 15 1-5 7-10h2l2-4 10-10 7-8 10-13 14-20 11-16 9-15h2z" fill="#115167"/>
<path transform="translate(1572,1414)" d="m0 0h1l4 30v18l-3 10-4 1-3 4h-2v2l-3 1h-8l-1 3-6-1 3-7 6 1 5 1 10-9 2-8v-22l1-2-1-3z" fill="#144C6C"/>
<path transform="translate(1394,745)" d="m0 0 3 3 4 8-3 12-5 10-4 5-4 9-4 8-1-2 4-10 3-8 2-6 1-8 1-3 3-14z" fill="#0D5962"/>
<path transform="translate(1498,943)" d="m0 0 3 1 2 3v6l-5 9-3 3-3 5-4 1-4-2 2-6h5l-3-3v-2h2l2-4 4-9z" fill="#113459"/>
<path transform="translate(1248,1124)" d="m0 0 5 1 6 7 7 11 3 7-1 6-5 12-6 23-3 9-2 8h-1l1-10 5-18 3-18 4-14h2l-8-13-6-7z" fill="#0D5862"/>
<path transform="translate(1226,737)" d="m0 0 4 1-4 2-8 10-2 1-5 9-10 19-10 21-5 7-1-4 18-36 8-13 11-14z" fill="#115167"/>
<path transform="translate(999,1369)" d="m0 0 5 5 6 9 8 8 2 1v2l4 2 7 3 1 4 5 2 10 6v2l4 2h-6l-16-10-20-18-4-5-6-11z" fill="#124E69"/>
<path transform="translate(337,911)" d="m0 0h2l6 17 9 16 9 9 12 7 8 2v2l-9-1-15-8-4-4v-2l-4-2-9-16-4-12z" fill="#144D6C"/>
<path transform="translate(1672,885)" d="m0 0 1 2h2l-1 4-12 11-8 11-13 17-4 5-2 6h-2l-1 4-1 1-1 8h-2l-2-3-2 2 1-5 6-8 5-9 4-6 5-5 1-2h2l2-5 8-9 9-11z" fill="#105167"/>
<path transform="translate(444,872)" d="m0 0h1l1 12-1 6-1 9-3 8-5 4v-2l-3-1-1-4 2-4v-5l5 2v-7l2-9 2-4z" fill="#11365A"/>
<path transform="translate(1142,1344)" d="m0 0 2 2 7 20 9 17 3 4 2 5 5 6 5 3 9 8 10 8h-3l-6-4-9-7-8-7-8-9-7-11-8-21-3-10z" fill="#115468"/>
<path transform="translate(861,890)" d="m0 0 2 1-8 17-5 9-5 8-3 7-7 12-7 10-2 4h-2l-2 5-1-3 12-20 4-8h2l1-4 4-8h2l2-7 1-3h2l2-5z" fill="#185871"/>
<path transform="translate(1456,870)" d="m0 0 3 1h-2l-1 6h-2l-3 9-4 8-1 4-2 1-1 8h-2l-1 7v13l8-11 2-3h2l-1 5-7 10-2 2-3 8-3 3 1-7v-14l2-14 5-13 8-15z" fill="#134D6B"/>
<path transform="translate(569,678)" d="m0 0v3l-9 13-6 10-3 7h-2l-2 5-3 3-6 10-4 6h-2l3-9 7-11 16-24 9-11z" fill="#115169"/>
<path transform="translate(671,1249)" d="m0 0h3v10l-4 12-6 3-13 3 1-3h3v-2l10-5 4-4v-5l-3-1h-10l-10 1 4-2 10-2h9v-4z" fill="#15516D"/>
<path transform="translate(954,1413)" d="m0 0 10 4h6l7-2 4 1 4-1 1 5-5 4-6 1-11-2-8-6z" fill="#11385C"/>
<path transform="translate(363,819)" d="m0 0h5l-4 2-9 4-8 6-7 6v3h3l1 4-7 3-1 2h-2l-1 2v-3l-3 3h-2l1-4 14-18 10-7z" fill="#0D5962"/>
<path transform="translate(857,1138)" d="m0 0h34v2l-32 1-13 3-16 4-6 5-3 3 2-5 8-7 11-4z" fill="#124E69"/>
<path transform="translate(1503,962)" d="m0 0 3 1-1 4h-2l-3 9-2 1-2 5-8 8-6 1-1-2h2l2-5 1-2h2l2-4 6-8h2v-2l4-3z" fill="#133C5D"/>
<path transform="translate(1467,1380)" d="m0 0h1v13l-2 12-8 15-1 1h-7l2-1v-2h2l2-6 3-3 2-9 1-1 1-7h3v-10z" fill="#144C6C"/>
<path transform="translate(721,970)" d="m0 0h1v43l1 12 4 10 8 10 3 3v2l4 2 4 5-5-2-5-4-10-13-4-8-3-17v-30l1-1z" fill="#115368"/>
<path transform="translate(1707,577)" d="m0 0h10l12 3 7 4 9 8-1 2-8-6-11-5-9-1-5-2-11 1-9 2h-5l3-2 5-2z" fill="#0D5862"/>
<path transform="translate(817,937)" d="m0 0 1 2-7 13-6 10-6 13-3 10-5 10h-2l-2 6-1 2h-2v-8l6-5 5-12 7-16 11-19 3-5z" fill="#134C6B"/>
<path transform="translate(914,779)" d="m0 0h2l-1 12-3 4-1 5-2 1-1 5-5 11h-2l-2 7-3 3 1-6 3-7 6-11 1-2h-2l1-6z" fill="#114763"/>
<path transform="translate(1647,749)" d="m0 0 2 1-12 13-5 4-18 18-7 8-10 10-1-3 19-19 4-5h2l2-4 5-5h2v-2h2l2-4 5-5z" fill="#105267"/>
<path transform="translate(1399,1376)" d="m0 0 2 4 4 10 7 8 3 2v2l4 2 6 5 4 4 3 1 1 2 17 5v1h-9l-14-7-13-10-7-7-7-11-1-3z" fill="#114E68"/>
<path transform="translate(642,1197)" d="m0 0h9l3 2-7 1-10 2-14 7h-2l-1 2-9-1h-4l-5-2v-1l8-2h11l5-2 6-3z" fill="#16516E"/>
<path transform="translate(1093,874)" d="m0 0 4 1-7 2-9 3-13 1h-17l-5 1v-4l6-2h7l7 1 17-1z" fill="#0D5962"/>
<path transform="translate(1490,835)" d="m0 0 3 3-3 10-2 4-3-1v-9l-9 3-2 5-4 4-3 5h-2l1-4 9-12 3-2h3v-2l4-3z" fill="#15556D"/>
<path transform="translate(1377,1140)" d="m0 0h2l4 4 4 7v3l1 3h-2l2 13-2 6-2 1-3-1-11-1v-1l11-2 2-3h2l-2-10-3-6v-5l-3-6z" fill="#0D5962"/>
<path transform="translate(1342,1269)" d="m0 0 1 3-2 20-1 22v31l2 9h-3l-1-6v-54l1-16z" fill="#37AC93"/>
<path transform="translate(1632,817)" d="m0 0 2 1-2 5-9 12-4 6-6 7-2 3-1-8 3-3 3-4 3-6 4-2z" fill="#125E69"/>
<path transform="translate(1046,1132)" d="m0 0h10l-3 2-17 3-19 5-11 6h-2l2-4 9-6 7-2z" fill="#144D6C"/>
<path transform="translate(766,856)" d="m0 0 1 3v2h-2v7l-1 3 4 1 2-1-2 7h-2v2h-2l-1 3-3 2h-3v-5l2-5 2-10z" fill="#113459"/>
<path transform="translate(981,732)" d="m0 0 4 2 7 10 7 11 2 4-3-1-3-5-5-5-8-4-3-3v-2l-1-2 2-1-2-2z" fill="#0D5962"/>
<path transform="translate(1550,723)" d="m0 0 1 4-6 9-6 12-12 22-2 1-1-4 10-18 6-11h2l2-4z" fill="#135C69"/>
<path transform="translate(1693,578)" d="m0 0h9v1l-10 2-6 1v2l-15 6-14 8h-3l2-4 18-10 15-5z" fill="#124F69"/>
<path transform="translate(995,1301)" d="m0 0 2 1 1 31v22h-2l-1-3z" fill="#105266"/>
<path transform="translate(953,1247)" d="m0 0 1 3-12 23-7 7-1-3 3-3 1-7 5-9h3l1-3h2l1-4z" fill="#154F6D"/>
<path transform="translate(931,882)" d="m0 0h1l1 10 1 2h-2l1 5-3 2-3 11v9l8 2-3 2h-5l-2-3v-14l5-25z" fill="#105167"/>
<path transform="translate(1082,743)" d="m0 0h18l5 2v2l-6-1h-16l-17 5-17 9-7 6-2-1 8-7 19-10z" fill="#134E6B"/>
<path transform="translate(1630,955)" d="m0 0 3 1 3 6 10 16 9 12v3l-3-3-5-3-10-16-7-12z" fill="#124F68"/>
<path transform="translate(954,720)" d="m0 0 2 1-2 5-6 5-9 12-4 5v-2h-2l2-4 7-11 9-9z" fill="#124F6A"/>
<path transform="translate(1479,769)" d="m0 0h17l12 1 5 3v1h-7l-4-1-25-1-16 1v-2z" fill="#1A5F73"/>
<path transform="translate(1264,1305)" d="m0 0h1l3 32 4 25 1 7-2-3-2-9h-2l-2-16-1-17-1-8z" fill="#145B6B"/>
<path transform="translate(1312,798)" d="m0 0v3l-6 8h-2l-2 4h-2l-1 3h-2l-2 5-5 7h-2v3h-2l-1 4-7 9h-2v2l-2-1 7-10h2l2-5 8-11 6-8h2l2-4 4-5h2v-2z" fill="#0D5862"/>
<path transform="translate(766,702)" d="m0 0 4 2 7 7 10 15 7 12 5 14 2 12-2-1-4-16-4-10-10-15-8-11-2-4h-2z" fill="#144C6C"/>
<path transform="translate(1313,731)" d="m0 0 2 1-12 11-11 9-7 8-6 7-3 2-3-1 5-5 4-5h2l2-4 15-14z" fill="#13506A"/>
<path transform="translate(991,721)" d="m0 0 6 2 5 2v-2l8-1 3 2-1 5-2 1-1 4-5-2-10-8z" fill="#134A6A"/>
<path transform="translate(835,903)" d="m0 0 1 3-1 4-3 3-3 9-3 5-4 8-2 2h-3l2-6 6-10 7-16z" fill="#195C72"/>
<path transform="translate(1526,1281)" d="m0 0 5 5 12 19 9 21 4 12-1 3-12-30-6-11-10-16z" fill="#144C6C"/>
<path transform="translate(742,1227)" d="m0 0h4l-2 8 1 5-2 1-1 7-2 1-3-9-1-5 3-5h2z" fill="#134C6B"/>
<path transform="translate(904,800)" d="m0 0 3 1-2 5-4 8-5 13-7 13h-2l3-10 12-25z" fill="#144D6C"/>
<path transform="translate(616,1187)" d="m0 0 4 1-1 2-8 2-8 5-1 1 1 10 6 2 1-2 7 2 3 1-4 1-14-1-3-4-1-6 3-6 9-6z" fill="#124F69"/>
<path transform="translate(800,922)" d="m0 0 1 4-1 2h-2l-1 5-10 19-7 16h-2l-1 5-3 8-1-4 5-13 10-19 7-14z" fill="#0F5366"/>
<path transform="translate(961,850)" d="m0 0 2 1-10 25-2 1v-14l6-7 3-5z" fill="#113459"/>
<path transform="translate(1144,841)" d="m0 0 3 1-9 11-9 8-5 4h-2v2l-6 3-6 2h-5l3-2 9-4 10-7 8-7 7-8z" fill="#115167"/>
<path transform="translate(1255,1011)" d="m0 0 4 1 1 3 5 1 19 10 1 2 3 1v2l4 1-3 1-10-6-14-6-10-9z" fill="#15506D"/>
<path transform="translate(758,896)" d="m0 0 1 3-10 14-6 9-14 19-6 4 2-4 5-5 4-7 8-9 5-8 3-6 3-3z" fill="#0D5962"/>
<path transform="translate(945,1319)" d="m0 0 5 5 14 19 7 10v2l-4-1-1-3h-2l-2-3-1-4-2-5h-2l-4-6-7-10z" fill="#134A6A"/>
<path transform="translate(385,770)" d="m0 0h10l12 6 12 11 3 4-4-2-10-8-7-5-4-2-12-2z" fill="#115068"/>
<path transform="translate(1259,1262)" d="m0 0h1l-1 18-3 7-4 15h-2l2-13 3-14 3-12z" fill="#1C6375"/>
<path transform="translate(1637,788)" d="m0 0m-2 1h2l-1 4-8 7-15 14-15 15v-3l19-19z" fill="#134C6B"/>
<path transform="translate(1329,783)" d="m0 0h5l-1 6-5 13-3 3 1-7 2-7-1-3-6 2v2l-2-1 5-5z" fill="#0D5862"/>
<path transform="translate(1091,1213)" d="m0 0 4 1 7 10 3 7-1 3v-2l-5-1-4-7-2-5z" fill="#144D6C"/>
<path transform="translate(1571,1471)" d="m0 0 1 4-5 6-10 5-10-2-1-2h7l1-2 11-1v-2l5-5z" fill="#11395C"/>
<path transform="translate(1246,1309)" d="m0 0 2 4-1 11-1 6h-2v3h-3l1-15 3-8z" fill="#11385C"/>
<path transform="translate(1324,918)" d="m0 0 4 3-1 4h-2l-2 4-7 5v-7l2-5z" fill="#134C6A"/>
<path transform="translate(727,743)" d="m0 0h5l1 4-4 11h-6l-1-4 4-8z" fill="#0D5962"/>
<path transform="translate(1645,888)" d="m0 0 1 4-3 2-5 9h-2l-1 4-9 14-4 4-2-1 14-21z" fill="#105366"/>
<path transform="translate(691,1137)" d="m0 0 4 1 3 6 4 9-1 5-4 4-3 6-1-2 2-5 1-13z" fill="#0D5862"/>
<path transform="translate(1320,813)" d="m0 0 1 2-11 18-7 10-8 12-1-4 8-11 11-17 4-7h2z" fill="#105366"/>
<path transform="translate(1025,1399)" d="m0 0 5 2 10 6 7 4v2l4 2h-6l-16-10z" fill="#113B5F"/>
<path transform="translate(1150,868)" d="m0 0v3l-6 7-5 3-3 3v-2l-9 5-4-1 5-5 11-4 8-6z" fill="#0D5862"/>
<path transform="translate(1560,704)" d="m0 0 1 2-4 8-2 6-5 4-6 11-3 3 1-5 8-14 8-13z" fill="#134D6A"/>
<path transform="translate(1265,1227)" d="m0 0 2 1-5 29-2 5h-1l1-13 4-21z" fill="#144C6C"/>
<path transform="translate(1198,777)" d="m0 0h1v7l-9 17-4 6-1-4 8-16z" fill="#13506A"/>
<path transform="translate(861,890)" d="m0 0 2 1-8 17-5 9-5 8-3 1 1-4 1-2h2l2-7 1-3h2l2-5z" fill="#1F6C79"/>
<path transform="translate(1038,717)" d="m0 0v3l-4 5-8 7-5 2h-5l-3 3-5-2 1-2 4-1 9-2 5-3h2l1-3z" fill="#134B6B"/>
<path transform="translate(1701,934)" d="m0 0h2l2 3 4 2v2l4 2v4l-9 1 1-2-2-5-3-4z" fill="#113459"/>
<path transform="translate(1448,889)" d="m0 0 2 3v12l-4 1-1 3h-4l2-9 4-8z" fill="#F4F8F7"/>
<path transform="translate(1363,719)" d="m0 0 7 1 14 8 9 11 2 5-3-1-6-9-10-8-9-3v-2z" fill="#115068"/>
<path transform="translate(857,1138)" d="m0 0h34v2l-42 1 1-2z" fill="#154F6D"/>
<path transform="translate(626,643)" d="m0 0h8l-1 2-16 4-11 4-9 5-2-1 7-5 16-7z" fill="#134C6B"/>
<path transform="translate(1707,577)" d="m0 0h10l12 3 7 4 9 8-1 2-8-6-6-3v-3l-5-1-11-2-7-1z" fill="#175A6F"/>
<path transform="translate(1319,931)" d="m0 0v3l-12 12-8 5h-2l1-7 2-5 1 3v4l5-2 3-4 2-4 2-2 5-2z" fill="#0F5465"/>
<path transform="translate(1684,912)" d="m0 0 4 1v8l2 2-1 2 2 1-1 3 3 1 2 5h-2v8l-2-4-4-14-1-1-1-7z" fill="#0D5962"/>
<path transform="translate(454,913)" d="m0 0h2l-1 5-9 14-5 5 1-5 6-10 2-6 4-1z" fill="#105D65"/>
<path transform="translate(910,795)" d="m0 0h1v5l-2 1-1 5-5 11h-2l-2 7-3 3 1-6 3-7 6-11 3-7z" fill="#0D5862"/>
<path transform="translate(876,1419)" d="m0 0h2v2l2 1-2 3-10 2-4-1v-4z" fill="#123B5E"/>
<path transform="translate(721,970)" d="m0 0h1v45l-2 4-1-8v-28l1-1z" fill="#1C7674"/>
<path transform="translate(1476,820)" d="m0 0h14l6 2 1 4v7l-5 10-1-3 3-6-1-11-16-1z" fill="#105267"/>
<path transform="translate(1781,813)" d="m0 0 3 1-9 6-9 4h-3l2-4 11-6z" fill="#195C71"/>
<path transform="translate(1249,739)" d="m0 0 6 5 8 16 5 8 4 1v2l-4 1-5-5-2-5-9-18-3-3z" fill="#15516D"/>
<path transform="translate(1703,819)" d="m0 0h5l4 4-2 6-6-1-3-3 1-5z" fill="#113459"/>
<path transform="translate(569,678)" d="m0 0v3l-9 13-5 9h-4l2-5 12-16z" fill="#134C6B"/>
<path transform="translate(810,1323)" d="m0 0h2l-3 16-8 25-1-4 6-20 2-14z" fill="#17546F"/>
<path transform="translate(1456,870)" d="m0 0 3 1h-2l-1 6h-2l-3 9-4 8-1 4-2 1-1 8-3-2 1-5 8-16z" fill="#1E6877"/>
<path transform="translate(982,858)" d="m0 0 1 3-5 8-9 16h-3l5-9 8-16z" fill="#1E7577"/>
<path transform="translate(1165,1393)" d="m0 0 5 5 5 3 9 8 10 8h-3l-6-4-9-7-8-7-3-3z" fill="#134566"/>
<path transform="translate(1336,1124)" d="m0 0h16l4 1v2h-24l-11 2-4-1 11-3z" fill="#16526E"/>
<path transform="translate(1678,874)" d="m0 0 5 5 6 8-8-1-3-2v-4l-3-1z" fill="#0D5862"/>
<path transform="translate(625,1276)" d="m0 0h25l-4 2-21 4-2-2z" fill="#1D6676"/>
<path transform="translate(1079,1268)" d="m0 0h12l-4 3-4 2-10 2-4 1 1-4h4v-2z" fill="#0D5962"/>
<path transform="translate(1231,1385)" d="m0 0h1v7l-4 10-5 7h-2l3-10h2l1-4 2-3z" fill="#113A5E"/>
<path transform="translate(797,1213)" d="m0 0 2 3 2 5v7h-3v2l-3-1v-14h2z" fill="#113459"/>
<path transform="translate(1159,1151)" d="m0 0 5 5 10 17 1 4-2 1-5-9-6-11-3-5z" fill="#134B6B"/>
<path transform="translate(699,966)" d="m0 0 3 1-4 10h-4v2h-4l2-6 4-5z" fill="#11365A"/>
<path transform="translate(1076,1204)" d="m0 0 2 1-1 2-21 3-12-1-2-4 5 2 15-1z" fill="#0D5862"/>
<path transform="translate(1247,877)" d="m0 0 1 3-12 15-6 4 2-4 10-13z" fill="#0E5564"/>
<path transform="translate(1693,578)" d="m0 0h9v1l-10 2-6 1v2l-8 3h-6l2-3 15-5z" fill="#134F6B"/>
<path transform="translate(1563,886)" d="m0 0 2 4 1 8v16l-4 6-2 1 2-4 1-5z" fill="#124E69"/>
<path transform="translate(881,1139)" d="m0 0 10 1 9 3v1l-14-1-5-1-22-1v-1z" fill="#0D5962"/>
<path transform="translate(1524,982)" d="m0 0 6 2v2h5v2h2v2l3 1v1h-6l-9-6z" fill="#124062"/>
<path transform="translate(1423,907)" d="m0 0h1v9l-1 10h2l2 9 4 5 5 1-1 2-5-1-5-6-3-8v-15z" fill="#0E5564"/>
<path transform="translate(464,894)" d="m0 0 1 2-8 17h-3v2l-3 1v-2h2v-4h2l2-5 5-10z" fill="#1A5D73"/>
<path transform="translate(1340,719)" d="m0 0h3v2l-10 3-12 5-6 2 5-5 12-5z" fill="#125369"/>
<path transform="translate(950,994)" d="m0 0 3 1-10 4h-10l-5-3v-1h20z" fill="#37AC93"/>
<path transform="translate(337,839)" d="m0 0 6 1 1 4-7 3-1 2h-2l-1 2-1-5z" fill="#134869"/>
<path transform="translate(766,702)" d="m0 0 4 2 7 7 9 13-1 3-4-5-8-11-2-4h-2z" fill="#115068"/>
<path transform="translate(1399,1376)" d="m0 0 2 4 4 10 7 8 1 2-3 1-8-10-3-7z" fill="#115068"/>
<path transform="translate(1615,781)" d="m0 0 2 1-12 13-8 8-1-3z" fill="#115068"/>
<path transform="translate(1131,1137)" d="m0 0h5l-4 4-9 6-3 3v-4l2-3h2v-2z" fill="#16566E"/>
<path transform="translate(456,803)" d="m0 0h3v2l8 1v3l5 2v3l-6-1-2-1v-2l-5-1-3-4z" fill="#1D6576"/>
<path transform="translate(1529,1470)" d="m0 0 6 2 9 6 3 3-2 2-9-6-7-5z" fill="#134868"/>
<path transform="translate(1747,862)" d="m0 0 7 6 9 11 5 6-1 2-4-4-7-8-9-11z" fill="#144C6C"/>
<path transform="translate(341,771)" d="m0 0 4 1-10 4-11 4-6 4-2-1 5-4 12-6z" fill="#144C6C"/>
<path transform="translate(981,732)" d="m0 0 4 2 7 10 7 11 2 4-3-1-10-16v-2l-3-1-2-5h-2z" fill="#16526E"/>
<path transform="translate(938,991)" d="m0 0 7 1 3 2v2h-10l-9-1v-1z" fill="#0D5962"/>
<path transform="translate(1311,1130)" d="m0 0 3 1-9 5-10 7-3 3h-2l2-4 7-6z" fill="#154F6D"/>
<path transform="translate(1248,1124)" d="m0 0 5 1 6 7 7 11 2 4-3-1-7-11-6-7z" fill="#13506A"/>
<path transform="translate(1610,846)" d="m0 0h1v7l-4 8-5 6h-2l1-3h2l2-5 1-3 1-5z" fill="#0F4D61"/>
<path transform="translate(1018,789)" d="m0 0h1v5l-9 16-2-1 2-6z" fill="#105266"/>
<path transform="translate(619,1391)" d="m0 0h1v7l-6 7-3 2h-5v-2l6-1 2-5 3-1z" fill="#11395D"/>
<path transform="translate(1152,1375)" d="m0 0 3 1 1 4h2l5 7 2 5-1 3-9-13z" fill="#124D68"/>
<path transform="translate(1633,936)" d="m0 0 1 3-2 6-1 1-1 8h-2l-2-3-2 2 1-5 6-8z" fill="#17606F"/>
<path transform="translate(1426,894)" d="m0 0h1v16l-2 8-1 8h-1v-10l2-21z" fill="#144C6C"/>
<path transform="translate(895,827)" d="m0 0 1 3-1 3h-2l-1 6-8 16-3 3 3-10 3-5z" fill="#0D5962"/>
<path transform="translate(558,1379)" d="m0 0 7 6 9 8 3 3-5-1-10-8-4-6z" fill="#124F69"/>
<path transform="translate(677,1318)" d="m0 0h1l4 19 2 8-3-1-4-16z" fill="#13566A"/>
<path transform="translate(267,863)" d="m0 0h1l1 10-1 23h-1l-1-11v-15z" fill="#1D6F75"/>
<path transform="translate(1461,1299)" d="m0 0 5 1 8 5 4 5 1 4-3-1v-2l-3-1-6-7-6-3z" fill="#0D5962"/>
<path transform="translate(599,1198)" d="m0 0h1l2 9 7 3 1-2 7 2 3 1-4 1-14-1-3-4-1-6z" fill="#0D5962"/>
<path transform="translate(268,884)" d="m0 0h1l2 18 2 7v5l-1-3h-2l-2-8z" fill="#105567"/>
<path transform="translate(1464,1315)" d="m0 0 2 3v20h-2l-1-16z" fill="#113459"/>
<path transform="translate(1093,798)" d="m0 0 5 3-3 3-5 1-2 5h-1v-8l3-3z" fill="#134465"/>
<path transform="translate(961,1340)" d="m0 0 4 4 6 9v2l-4-1-1-3h-2l-2-3-1-4-1-3z" fill="#144D6C"/>
<path transform="translate(926,1285)" d="m0 0 3 1 1 7 5 9-1 2-4-2-4-11-1-3z" fill="#144D6C"/>
<path transform="translate(1261,894)" d="m0 0v3l-11 12-5 8-1-3 6-9 5-5z" fill="#144C6C"/>
<path transform="translate(710,828)" d="m0 0 2 1-4 10-8 11-2 1 2-5 6-10z" fill="#1A5D73"/>
<path transform="translate(927,905)" d="m0 0 1 4-1 9v3l8 2-3 2h-5l-2-3v-14z" fill="#115068"/>
<path transform="translate(1377,804)" d="m0 0 2 3 1 3-3 1-2 5-4 8-1-3 4-10z" fill="#115067"/>
<path transform="translate(1377,1223)" d="m0 0h2v10l7-2-2 4-12 4v-2l4-1z" fill="#0D5A63"/>
<path transform="translate(1270,1205)" d="m0 0h1v7l-4 16-2-1 1-7z" fill="#124E69"/>
<path transform="translate(1688,953)" d="m0 0 6 2 22 2-4 2h-8l-10-1-5-3z" fill="#0D5962"/>
<path transform="translate(620,828)" d="m0 0h17v2l-5 1h-14z" fill="#104761"/>
<path transform="translate(1439,779)" d="m0 0 2 1-10 8-7 4 1-4 5-4z" fill="#144E6C"/>
<path transform="translate(1207,763)" d="m0 0 1 2-8 17h-1v-7l5-9h2z" fill="#0F5765"/>
<path transform="translate(1313,731)" d="m0 0 2 1-12 11-8 7-2-1 14-14z" fill="#144C6C"/>
<path transform="translate(1377,946)" d="m0 0 5 1 4 7 1 9-2-1-2-9-4-3-4-1v-2z" fill="#0D5862"/>
<path transform="translate(747,902)" d="m0 0h5l-3 7-4 2-2-4 2-3h2z" fill="#113459"/>
<path transform="translate(1388,786)" d="m0 0 1 2-9 19h-2l1-7 2-1 6-12z" fill="#134D6A"/>
<path transform="translate(1491,772)" d="m0 0h11l7 2-1 2h-7l-10-2z" fill="#0D5962"/>
<path transform="translate(974,1360)" d="m0 0 4 4 5 8-2 4-4-5-3-8z" fill="#17546F"/>
<path transform="translate(1323,791)" d="m0 0 1 2-3 7-7 3v-5l4-1v-3z" fill="#113459"/>
<path transform="translate(1456,772)" d="m0 0h5v2h-4v2l-10 2-6 1 4-3z" fill="#15536D"/>
<path transform="translate(1705,899)" d="m0 0 4 2 7 9 1 4-3-1-5-7v-2h-2z" fill="#15576D"/>
<path transform="translate(1582,891)" d="m0 0v3l-7 11-3 2 2-7 6-8z" fill="#0E5664"/>
<path transform="translate(1156,817)" d="m0 0h1l-1 11-6 12-3 1 2-5 4-7z" fill="#144C6C"/>
<path transform="translate(652,807)" d="m0 0 2 2v7l-6 9-3 3-2-1 7-8 1-6v-5z" fill="#37AC93"/>
<path transform="translate(1026,981)" d="m0 0 11 6 2 4-5-1-8-6z" fill="#123D60"/>
<path transform="translate(922,771)" d="m0 0 1 4h-2l-3 9-3 3v-10l2-2h2z" fill="#0F5264"/>
<path transform="translate(1341,1354)" d="m0 0 5 2 11 8v3l-15-10z" fill="#105167"/>
<path transform="translate(1672,885)" d="m0 0 1 2h2l-1 4-6 5h-2l2-5z" fill="#115068"/>
<path transform="translate(500,812)" d="m0 0 1 4-1 2-4 1-4-2-1-3z" fill="#134C6B"/>
<path transform="translate(977,1413)" d="m0 0m-3 1h3v2l-7 2h-6l-5-2v-1z" fill="#144C6C"/>
<path transform="translate(993,940)" d="m0 0 2 1v3l2 1-3 3-7-3 1-3h5z" fill="#113459"/>
<path transform="translate(1261,775)" d="m0 0h5l-2 7-4 1-1-5 2-1z" fill="#37AC93"/>
<path transform="translate(1759,765)" d="m0 0 4 2 6 5 7 10-1 2-8-10v-2l-4-2z" fill="#144F6B"/>
<path transform="translate(644,922)" d="m0 0 1 3-12 11-2-1 9-10z" fill="#37AC93"/>
<path transform="translate(1106,915)" d="m0 0v3l-8 6-4 1 2-4z" fill="#196671"/>
<path transform="translate(1450,913)" d="m0 0h2l-1 5-6 9h-1l1-7z" fill="#0D5763"/>
<path transform="translate(1340,903)" d="m0 0h2l-2 4-11 15-1-3 10-13z" fill="#105267"/>
<path transform="translate(833,938)" d="m0 0 1 2-6 10-5 8h-2l2-5z" fill="#37AC93"/>
<path transform="translate(1628,767)" d="m0 0 2 1-7 8-5 5h-2l2-4 3-1 2-4z" fill="#0F5465"/>
<path transform="translate(954,1207)" d="m0 0 2 2 1 5v8l-2-1-2-6v-7z" fill="#15516E"/>
<path transform="translate(642,1197)" d="m0 0h9l3 2-7 1-9 1v-2z" fill="#21707A"/>
<path transform="translate(1345,860)" d="m0 0 1 4-8 13h-2l2-5z" fill="#0F5465"/>
<path transform="translate(1270,883)" d="m0 0 1 3-8 9-2-2z" fill="#124F69"/>
<path transform="translate(870,875)" d="m0 0 1 4-5 8h-2v3h-2l2-6 5-8z" fill="#185971"/>
<path transform="translate(1614,838)" d="m0 0h2v6l-4 7h-1l-1-8 3-3z" fill="#196171"/>
<path transform="translate(368,818)" d="m0 0h11l2 3 1 11-3-1v-8l-2-3-9-1z" fill="#0D5962"/>
<path transform="translate(1234,1123)" d="m0 0h5l-4 3-7 6-2 2-1-3z" fill="#124F69"/>
<path transform="translate(1429,883)" d="m0 0 1 3-4 9-1 10h-1v-11l4-10z" fill="#105366"/>
<path transform="translate(1550,723)" d="m0 0 1 4-6 9-3 6-1-4 6-10z" fill="#0D5962"/>
<path transform="translate(1300,939)" d="m0 0 1 3v4l4-1-2 4-6 2 1-7z" fill="#0D5962"/>
<path transform="translate(1302,939)" d="m0 0 2 2 4 2-5 4-4-2z" fill="#144C6C"/>
<path transform="translate(419,935)" d="m0 0 5 2-3 5-3-1-1-1-1-2-4-2z" fill="#42B099"/>
<path transform="translate(1080,932)" d="m0 0h5l-4 5-7 3v-3l4-1v-3z" fill="#126069"/>
<path transform="translate(623,769)" d="m0 0 5 1 9 10-1 2-9-9z" fill="#115068"/>
<path transform="translate(824,927)" d="m0 0h2l-4 8-2 2h-3l2-5z" fill="#378188"/>
<path transform="translate(975,871)" d="m0 0 1 2-7 12h-3l5-9z" fill="#0D5962"/>
<path transform="translate(753,1409)" d="m0 0 2 1v2l4 1-3 1h-10l-1-2 7-2z" fill="#134061"/>
<path transform="translate(1070,1344)" d="m0 0 4 2 6 7-6-2-5-4z" fill="#115068"/>
<path transform="translate(767,997)" d="m0 0 2 2v6l2 3 5 1v1h-6l-3-2-1-7z" fill="#0D5862"/>
<path transform="translate(758,896)" d="m0 0 1 3-9 12h-2l2-5 3-3z" fill="#0D5763"/>
<path transform="translate(1645,888)" d="m0 0 1 4-3 2-5 9h-2l2-5z" fill="#105267"/>
<path transform="translate(1435,868)" d="m0 0v3l-4 11-3 2 3-10 2-5z" fill="#115068"/>
<path transform="translate(909,789)" d="m0 0 2 3-1 4-3 5h-2l1-6z" fill="#134667"/>
<path transform="translate(902,984)" d="m0 0 5 1 8 4-3 1-4-1v-2h-5l-3 3 1-5z" fill="#37AC93"/>
<path transform="translate(1497,941)" d="m0 0h4l4 7-1 2-3-2-1-4-4 2-2 2 1-5z" fill="#0F5366"/>
<path transform="translate(1473,868)" d="m0 0 1 2-3 7-5 8-2-1z" fill="#37AC93"/>
<path transform="translate(1194,790)" d="m0 0v3l-4 8-4 6-1-4 5-6 3-6z" fill="#0D5763"/>
<path transform="translate(1e3 760)" d="m0 0h2l2 5v9l-2 3z" fill="#298683"/>
<path transform="translate(1576,680)" d="m0 0v3l-1 5h-2l-2 4-1-5z" fill="#115068"/>
<path transform="translate(1241,886)" d="m0 0v3l-5 6-6 4 2-4 5-5z" fill="#115168"/>
<path transform="translate(1085,810)" d="m0 0 2 1-5 5-1 5-3-3-1-3 5-2 1-2z" fill="#144C6C"/>
<path transform="translate(1318,791)" d="m0 0 3 2-3 3v3l-6-1z" fill="#105066"/>
<path transform="translate(1434,1417)" d="m0 0 16 4v1h-9l-7-3z" fill="#16526E"/>
<path transform="translate(719,1170)" d="m0 0h10l-4 2-11 3z" fill="#144C6C"/>
<path transform="translate(829,949)" d="m0 0v3l-3 6h-2l-2 5-1-3 6-9z" fill="#124E69"/>
<path transform="translate(1641,927)" d="m0 0v3l-4 5-2 6h-2l2-9z" fill="#0E5664"/>
<path transform="translate(1635,902)" d="m0 0 1 4-5 7-3 1 2-5z" fill="#0F5465"/>
<path transform="translate(1471,876)" d="m0 0 1 3-5 9-3-1 6-10z" fill="#0E5B63"/>
<path transform="translate(934,748)" d="m0 0 1 2-3 5-2 6-3 2 1-5 4-8z" fill="#0D5862"/>
<path transform="translate(1099,743)" d="m0 0 6 2v2l-20-2v-1z" fill="#0F5465"/>
<path transform="translate(1219,1410)" d="m0 0 1 3-7 6-3-1 5-4z" fill="#113A5E"/>
<path transform="translate(724,1401)" d="m0 0 5 2 4 4-7-1-3-2z" fill="#123D60"/>
<path transform="translate(1115,1191)" d="m0 0h2l3 8v8l-2-3-1-7-3-4z" fill="#0E5664"/>
<path transform="translate(341,771)" d="m0 0 4 1-10 4-4-1 5-3z" fill="#115068"/>
<path transform="translate(1010,732)" d="m0 0h10l-4 2-3 3-5-2 1-2z" fill="#1B6074"/>
<path transform="translate(810,1323)" d="m0 0h2l-2 12-2-2v-7z" fill="#1A5D73"/>
<path transform="translate(1446,1214)" d="m0 0h2l2 4 4 1-1 2h-5l-2-2z" fill="#0D5962"/>
<path transform="translate(1647,919)" d="m0 0v3l-4 5-5 3 2-5z" fill="#105366"/>
<path transform="translate(703,806)" d="m0 0 4 2 6 7-3 1-7-9z" fill="#115568"/>
<path transform="translate(1466,770)" d="m0 0h9l-2 2-12 1v-2z" fill="#22737B"/>
<path transform="translate(1529,758)" d="m0 0 2 1-4 11-2 1-1-4z" fill="#186170"/>
<path transform="translate(1548,724)" d="m0 0 1 2-5 9-3 3 1-5z" fill="#154F6D"/>
<path transform="translate(1327,723)" d="m0 0m-3 1h3v2l-10 5-2-1 5-4z" fill="#134D6A"/>
<path transform="translate(766,702)" d="m0 0 4 2 7 7v2l-4-2-2-4h-2z" fill="#134D6A"/>
<path transform="translate(894,1340)" d="m0 0 5 5 4 6-2 1v-2h-2l-5-8z" fill="#0D5962"/>
<path transform="translate(1366,1260)" d="m0 0h15v1l-16 2z" fill="#21707B"/>
<path transform="translate(1668,864)" d="m0 0h6l5 5-1 3-3-5-9-1z" fill="#0D5962"/>
<path transform="translate(1569,827)" d="m0 0 2 1-6 10-4 1 6-9z" fill="#0E5564"/>
<path transform="translate(1697,822)" d="m0 0h2l9 9-6-2-5-5z" fill="#0E5663"/>
<path transform="translate(1563,702)" d="m0 0 1 2-6 11-2 1 2-6z" fill="#0D5962"/>
<path transform="translate(1016,671)" d="m0 0 5 5 4 5v2l-4-2-5-8z" fill="#124E6A"/>
<path transform="translate(626,643)" d="m0 0h8l-1 2-12 2 1-3z" fill="#115668"/>
<path transform="translate(1007,1545)" d="m0 0" fill="#FEFDFD"/>
</svg>
